solid ascii
  facet normal -7.175800e-001 6.964761e-001 0.000000e+000
    outer loop
      vertex   -2.136346e+002 2.620222e+002 -7.105427e-014
      vertex   -2.136346e+002 2.620222e+002 1.700020e+000
      vertex   -2.087817e+002 2.670222e+002 -7.105427e-014
    endloop
  endfacet
  facet normal -6.971311e-001 6.766286e-001 0.000000e+000
    outer loop
      vertex   -2.087817e+002 2.670222e+002 -7.105427e-014
      vertex   -2.136346e+002 2.620222e+002 1.700020e+000
      vertex   -2.087817e+002 2.670222e+002 1.700020e+000
    endloop
  endfacet
  facet normal 7.175800e-001 6.964761e-001 -0.000000e+000
    outer loop
      vertex   -2.039287e+002 2.670222e+002 -7.105427e-014
      vertex   -2.039287e+002 2.670222e+002 1.700020e+000
      vertex   -1.990758e+002 2.620222e+002 -7.105427e-014
    endloop
  endfacet
  facet normal 6.971311e-001 6.766286e-001 -0.000000e+000
    outer loop
      vertex   -1.990758e+002 2.620222e+002 -7.105427e-014
      vertex   -2.039287e+002 2.670222e+002 1.700020e+000
      vertex   -1.990758e+002 2.620222e+002 1.700020e+000
    endloop
  endfacet
  facet normal -1.000000e+000 -0.000000e+000 -0.000000e+000
    outer loop
      vertex   -2.087817e+002 2.991104e+002 1.700020e+000
      vertex   -2.087817e+002 2.991104e+002 -7.105427e-014
      vertex   -2.087817e+002 2.670222e+002 1.700020e+000
    endloop
  endfacet
  facet normal -9.985995e-001 0.000000e+000 0.000000e+000
    outer loop
      vertex   -2.087817e+002 2.670222e+002 1.700020e+000
      vertex   -2.087817e+002 2.991104e+002 -7.105427e-014
      vertex   -2.087817e+002 2.670222e+002 -7.105427e-014
    endloop
  endfacet
  facet normal 7.175800e-001 -6.964761e-001 0.000000e+000
    outer loop
      vertex   -1.990758e+002 3.041104e+002 -7.105427e-014
      vertex   -1.990758e+002 3.041104e+002 1.700020e+000
      vertex   -2.039287e+002 2.991104e+002 -7.105427e-014
    endloop
  endfacet
  facet normal 6.971311e-001 -6.766286e-001 0.000000e+000
    outer loop
      vertex   -2.039287e+002 2.991104e+002 -7.105427e-014
      vertex   -1.990758e+002 3.041104e+002 1.700020e+000
      vertex   -2.039287e+002 2.991104e+002 1.700020e+000
    endloop
  endfacet
  facet normal 1.000000e+000 0.000000e+000 -0.000000e+000
    outer loop
      vertex   -2.039287e+002 2.991104e+002 -7.105427e-014
      vertex   -2.039287e+002 2.991104e+002 1.700020e+000
      vertex   -2.039287e+002 2.670222e+002 -7.105427e-014
    endloop
  endfacet
  facet normal 9.985995e-001 0.000000e+000 0.000000e+000
    outer loop
      vertex   -2.039287e+002 2.670222e+002 -7.105427e-014
      vertex   -2.039287e+002 2.991104e+002 1.700020e+000
      vertex   -2.039287e+002 2.670222e+002 1.700020e+000
    endloop
  endfacet
  facet normal -7.175800e-001 -6.964761e-001 0.000000e+000
    outer loop
      vertex   -2.087817e+002 2.991104e+002 -7.105427e-014
      vertex   -2.087817e+002 2.991104e+002 1.700020e+000
      vertex   -2.136346e+002 3.041104e+002 -7.105427e-014
    endloop
  endfacet
  facet normal -6.971311e-001 -6.766286e-001 0.000000e+000
    outer loop
      vertex   -2.136346e+002 3.041104e+002 -7.105427e-014
      vertex   -2.087817e+002 2.991104e+002 1.700020e+000
      vertex   -2.136346e+002 3.041104e+002 1.700020e+000
    endloop
  endfacet
  facet normal 0.000000e+000 1.000000e+000 0.000000e+000
    outer loop
      vertex   -1.990758e+002 2.620222e+002 -7.105427e-014
      vertex   -1.990758e+002 2.620222e+002 1.700020e+000
      vertex   -1.904552e+002 2.620222e+002 0.000000e+000
    endloop
  endfacet
  facet normal 0.000000e+000 9.811045e-001 -0.000000e+000
    outer loop
      vertex   -1.904552e+002 2.620222e+002 0.000000e+000
      vertex   -1.990758e+002 2.620222e+002 1.700020e+000
      vertex   -1.904552e+002 2.620222e+002 1.700020e+000
    endloop
  endfacet
  facet normal 0.000000e+000 -1.000000e+000 0.000000e+000
    outer loop
      vertex   -2.136346e+002 3.041104e+002 -7.105427e-014
      vertex   -2.136346e+002 3.041104e+002 1.700020e+000
      vertex   -2.222552e+002 3.041104e+002 0.000000e+000
    endloop
  endfacet
  facet normal 0.000000e+000 -9.811046e-001 0.000000e+000
    outer loop
      vertex   -2.222552e+002 3.041104e+002 0.000000e+000
      vertex   -2.136346e+002 3.041104e+002 1.700020e+000
      vertex   -2.222552e+002 3.041104e+002 1.700020e+000
    endloop
  endfacet
  facet normal 0.000000e+000 -1.000000e+000 0.000000e+000
    outer loop
      vertex   -1.990758e+002 3.041104e+002 1.700020e+000
      vertex   -1.990758e+002 3.041104e+002 -7.105427e-014
      vertex   -1.904552e+002 3.041104e+002 1.700020e+000
    endloop
  endfacet
  facet normal 0.000000e+000 -9.811045e-001 -0.000000e+000
    outer loop
      vertex   -1.904552e+002 3.041104e+002 1.700020e+000
      vertex   -1.990758e+002 3.041104e+002 -7.105427e-014
      vertex   -1.904552e+002 3.041104e+002 0.000000e+000
    endloop
  endfacet
  facet normal 0.000000e+000 -0.000000e+000 7.071338e-001
    outer loop
      vertex   -2.317552e+002 2.498163e+002 1.700020e+000
      vertex   -2.317552e+002 2.688163e+002 1.700020e+000
      vertex   -2.319552e+002 2.500163e+002 1.700020e+000
    endloop
  endfacet
  facet normal 0.000000e+000 0.000000e+000 1.063834e-002
    outer loop
      vertex   -2.319552e+002 2.500163e+002 1.700020e+000
      vertex   -2.317552e+002 2.688163e+002 1.700020e+000
      vertex   -2.319552e+002 2.686163e+002 1.700020e+000
    endloop
  endfacet
  facet normal -5.773503e-001 0.000000e+000 5.773503e-001
    outer loop
      vertex   -2.329552e+002 2.676163e+002 7.000198e-001
      vertex   -2.329552e+002 2.510163e+002 7.000198e-001
      vertex   -2.319552e+002 2.686163e+002 1.700020e+000
    endloop
  endfacet
  facet normal -5.663567e-002 0.000000e+000 5.663567e-002
    outer loop
      vertex   -2.319552e+002 2.686163e+002 1.700020e+000
      vertex   -2.329552e+002 2.510163e+002 7.000198e-001
      vertex   -2.319552e+002 2.500163e+002 1.700020e+000
    endloop
  endfacet
  facet normal -1.000000e+000 0.000000e+000 0.000000e+000
    outer loop
      vertex   -2.329552e+002 2.510163e+002 7.000198e-001
      vertex   -2.329552e+002 2.676163e+002 7.000198e-001
      vertex   -2.329552e+002 2.510163e+002 0.000000e+000
    endloop
  endfacet
  facet normal -4.213245e-002 0.000000e+000 0.000000e+000
    outer loop
      vertex   -2.329552e+002 2.510163e+002 0.000000e+000
      vertex   -2.329552e+002 2.676163e+002 7.000198e-001
      vertex   -2.329552e+002 2.676163e+002 0.000000e+000
    endloop
  endfacet
  facet normal -7.071068e-001 7.071068e-001 0.000000e+000
    outer loop
      vertex   -2.329552e+002 2.676163e+002 0.000000e+000
      vertex   -2.329552e+002 2.676163e+002 7.000198e-001
      vertex   -2.317552e+002 2.688163e+002 0.000000e+000
    endloop
  endfacet
  facet normal -6.005602e-001 6.005602e-001 0.000000e+000
    outer loop
      vertex   -2.317552e+002 2.688163e+002 0.000000e+000
      vertex   -2.329552e+002 2.676163e+002 7.000198e-001
      vertex   -2.319552e+002 2.686163e+002 1.700020e+000
    endloop
  endfacet
  facet normal -1.160573e-001 1.160573e-001 0.000000e+000
    outer loop
      vertex   -2.317552e+002 2.688163e+002 0.000000e+000
      vertex   -2.319552e+002 2.686163e+002 1.700020e+000
      vertex   -2.317552e+002 2.688163e+002 1.700020e+000
    endloop
  endfacet
  facet normal -7.070798e-001 -7.071338e-001 -0.000000e+000
    outer loop
      vertex   -2.317552e+002 2.498163e+002 1.700020e+000
      vertex   -2.319552e+002 2.500163e+002 1.700020e+000
      vertex   -2.317552e+002 2.498163e+002 0.000000e+000
    endloop
  endfacet
  facet normal -6.005592e-001 -6.005641e-001 -4.823014e-006
    outer loop
      vertex   -2.317552e+002 2.498163e+002 0.000000e+000
      vertex   -2.319552e+002 2.500163e+002 1.700020e+000
      vertex   -2.329552e+002 2.510163e+002 7.000198e-001
    endloop
  endfacet
  facet normal -2.696339e-001 -2.696373e-001 -5.551115e-017
    outer loop
      vertex   -2.317552e+002 2.498163e+002 0.000000e+000
      vertex   -2.329552e+002 2.510163e+002 7.000198e-001
      vertex   -2.329552e+002 2.510163e+002 0.000000e+000
    endloop
  endfacet
  facet normal 0.000000e+000 -0.000000e+000 7.175936e-001
    outer loop
      vertex   -2.317552e+002 2.953751e+002 1.700020e+000
      vertex   -2.317552e+002 3.138163e+002 1.700020e+000
      vertex   -2.319552e+002 2.955692e+002 1.700020e+000
    endloop
  endfacet
  facet normal 0.000000e+000 0.000000e+000 1.096067e-002
    outer loop
      vertex   -2.319552e+002 2.955692e+002 1.700020e+000
      vertex   -2.317552e+002 3.138163e+002 1.700020e+000
      vertex   -2.319552e+002 3.136222e+002 1.700020e+000
    endloop
  endfacet
  facet normal -6.964621e-001 -7.175936e-001 -0.000000e+000
    outer loop
      vertex   -2.317552e+002 2.953751e+002 1.700020e+000
      vertex   -2.319552e+002 2.955692e+002 1.700020e+000
      vertex   -2.317552e+002 2.953751e+002 0.000000e+000
    endloop
  endfacet
  facet normal -5.904893e-001 -6.083722e-001 -3.793708e-006
    outer loop
      vertex   -2.317552e+002 2.953751e+002 0.000000e+000
      vertex   -2.319552e+002 2.955692e+002 1.700020e+000
      vertex   -2.329552e+002 2.965399e+002 7.000198e-001
    endloop
  endfacet
  facet normal -2.689315e-001 -2.770771e-001 5.551115e-017
    outer loop
      vertex   -2.317552e+002 2.953751e+002 0.000000e+000
      vertex   -2.329552e+002 2.965399e+002 7.000198e-001
      vertex   -2.329552e+002 2.965399e+002 0.000000e+000
    endloop
  endfacet
  facet normal -6.964710e-001 7.175850e-001 0.000000e+000
    outer loop
      vertex   -2.329552e+002 3.126516e+002 0.000000e+000
      vertex   -2.329552e+002 3.126516e+002 7.000198e-001
      vertex   -2.317552e+002 3.138163e+002 0.000000e+000
    endloop
  endfacet
  facet normal -5.904790e-001 6.083787e-001 -1.839321e-006
    outer loop
      vertex   -2.317552e+002 3.138163e+002 0.000000e+000
      vertex   -2.329552e+002 3.126516e+002 7.000198e-001
      vertex   -2.319552e+002 3.136222e+002 1.700020e+000
    endloop
  endfacet
  facet normal -1.126838e-001 1.161027e-001 0.000000e+000
    outer loop
      vertex   -2.317552e+002 3.138163e+002 0.000000e+000
      vertex   -2.319552e+002 3.136222e+002 1.700020e+000
      vertex   -2.317552e+002 3.138163e+002 1.700020e+000
    endloop
  endfacet
  facet normal -1.000000e+000 -0.000000e+000 -0.000000e+000
    outer loop
      vertex   -2.329552e+002 3.126516e+002 7.000198e-001
      vertex   -2.329552e+002 3.126516e+002 0.000000e+000
      vertex   -2.329552e+002 2.965399e+002 7.000198e-001
    endloop
  endfacet
  facet normal -9.990575e-001 0.000000e+000 0.000000e+000
    outer loop
      vertex   -2.329552e+002 2.965399e+002 7.000198e-001
      vertex   -2.329552e+002 3.126516e+002 0.000000e+000
      vertex   -2.329552e+002 2.965399e+002 0.000000e+000
    endloop
  endfacet
  facet normal -5.830050e-001 0.000000e+000 5.830050e-001
    outer loop
      vertex   -2.319552e+002 2.955692e+002 1.700020e+000
      vertex   -2.319552e+002 3.136222e+002 1.700020e+000
      vertex   -2.329552e+002 2.965399e+002 7.000198e-001
    endloop
  endfacet
  facet normal -5.834042e-002 0.000000e+000 5.834042e-002
    outer loop
      vertex   -2.329552e+002 2.965399e+002 7.000198e-001
      vertex   -2.319552e+002 3.136222e+002 1.700020e+000
      vertex   -2.329552e+002 3.126516e+002 7.000198e-001
    endloop
  endfacet
  facet normal -1.000000e+000 0.000000e+000 0.000000e+000
    outer loop
      vertex   -2.317552e+002 2.688163e+002 0.000000e+000
      vertex   -2.317552e+002 2.688163e+002 1.700020e+000
      vertex   -2.317552e+002 2.953751e+002 0.000000e+000
    endloop
  endfacet
  facet normal -9.979576e-001 0.000000e+000 0.000000e+000
    outer loop
      vertex   -2.317552e+002 2.953751e+002 0.000000e+000
      vertex   -2.317552e+002 2.688163e+002 1.700020e+000
      vertex   -2.317552e+002 2.953751e+002 1.700020e+000
    endloop
  endfacet
  facet normal -2.884173e-001 0.000000e+000 0.000000e+000
    outer loop
      vertex   -2.317552e+002 2.953751e+002 1.700020e+000
      vertex   -2.317552e+002 2.688163e+002 1.700020e+000
      vertex   -2.317552e+002 2.688163e+002 9.700000e+000
    endloop
  endfacet
  facet normal -9.575048e-001 0.000000e+000 0.000000e+000
    outer loop
      vertex   -2.317552e+002 2.953751e+002 1.700020e+000
      vertex   -2.317552e+002 2.688163e+002 9.700000e+000
      vertex   -2.317552e+002 2.953751e+002 9.700000e+000
    endloop
  endfacet
  facet normal -1.000000e+000 0.000000e+000 0.000000e+000
    outer loop
      vertex   -2.317552e+002 2.688163e+002 1.700020e+000
      vertex   -2.317552e+002 2.498163e+002 1.700020e+000
      vertex   -2.317552e+002 2.688163e+002 9.700000e+000
    endloop
  endfacet
  facet normal -3.880571e-001 -0.000000e+000 0.000000e+000
    outer loop
      vertex   -2.317552e+002 2.688163e+002 9.700000e+000
      vertex   -2.317552e+002 2.498163e+002 1.700020e+000
      vertex   -2.317552e+002 2.498163e+002 9.700020e+000
    endloop
  endfacet
  facet normal -1.000000e+000 0.000000e+000 -0.000000e+000
    outer loop
      vertex   -2.317552e+002 3.138163e+002 9.700020e+000
      vertex   -2.317552e+002 3.138163e+002 1.700020e+000
      vertex   -2.317552e+002 2.953751e+002 9.700000e+000
    endloop
  endfacet
  facet normal -9.173959e-001 0.000000e+000 0.000000e+000
    outer loop
      vertex   -2.317552e+002 2.953751e+002 9.700000e+000
      vertex   -2.317552e+002 3.138163e+002 1.700020e+000
      vertex   -2.317552e+002 2.953751e+002 1.700020e+000
    endloop
  endfacet
  facet normal -4.333239e-001 0.000000e+000 0.000000e+000
    outer loop
      vertex   -1.854552e+002 2.816104e+002 1.400000e+001
      vertex   -1.854552e+002 2.830663e+002 1.470000e+001
      vertex   -1.854552e+002 3.109045e+002 1.400000e+001
    endloop
  endfacet
  facet normal -2.581098e-001 0.000000e+000 0.000000e+000
    outer loop
      vertex   -1.854552e+002 3.109045e+002 1.400000e+001
      vertex   -1.854552e+002 2.830663e+002 1.470000e+001
      vertex   -1.854552e+002 3.138163e+002 1.470000e+001
    endloop
  endfacet
  facet normal -2.337427e-001 0.000000e+000 0.000000e+000
    outer loop
      vertex   -1.854552e+002 3.109045e+002 1.400000e+001
      vertex   -1.854552e+002 3.138163e+002 1.470000e+001
      vertex   -1.854552e+002 3.138163e+002 1.400000e+001
    endloop
  endfacet
  facet normal -1.000000e+000 0.000000e+000 0.000000e+000
    outer loop
      vertex   -1.854552e+002 2.523163e+002 1.400000e+001
      vertex   -1.854552e+002 2.523163e+002 1.470000e+001
      vertex   -1.854552e+002 2.816104e+002 1.400000e+001
    endloop
  endfacet
  facet normal -4.547296e-001 0.000000e+000 0.000000e+000
    outer loop
      vertex   -1.854552e+002 2.816104e+002 1.400000e+001
      vertex   -1.854552e+002 2.523163e+002 1.470000e+001
      vertex   -1.854552e+002 2.830663e+002 1.470000e+001
    endloop
  endfacet
  facet normal -7.070798e-001 -0.000000e+000 -7.071338e-001
    outer loop
      vertex   -1.848552e+002 3.109045e+002 1.340003e+001
      vertex   -1.848552e+002 2.816104e+002 1.340003e+001
      vertex   -1.854552e+002 3.109045e+002 1.400000e+001
    endloop
  endfacet
  facet normal -2.047252e-002 -0.000000e+000 -2.047408e-002
    outer loop
      vertex   -1.854552e+002 3.109045e+002 1.400000e+001
      vertex   -1.848552e+002 2.816104e+002 1.340003e+001
      vertex   -1.854552e+002 2.816104e+002 1.400000e+001
    endloop
  endfacet
  facet normal -7.067834e-001 0.000000e+000 -7.068373e-001
    outer loop
      vertex   -1.854552e+002 2.816104e+002 1.400000e+001
      vertex   -1.848552e+002 2.816104e+002 1.340003e+001
      vertex   -1.848552e+002 2.523163e+002 1.340003e+001
    endloop
  endfacet
  facet normal -2.047250e-002 -0.000000e+000 -2.047406e-002
    outer loop
      vertex   -1.854552e+002 2.816104e+002 1.400000e+001
      vertex   -1.848552e+002 2.523163e+002 1.340003e+001
      vertex   -1.854552e+002 2.523163e+002 1.400000e+001
    endloop
  endfacet
  facet normal -1.000000e+000 -0.000000e+000 -0.000000e+000
    outer loop
      vertex   -1.848552e+002 3.109045e+002 1.340003e+001
      vertex   -1.848552e+002 3.109045e+002 1.200000e+001
      vertex   -1.848552e+002 2.816104e+002 1.340003e+001
    endloop
  endfacet
  facet normal -9.988599e-001 0.000000e+000 0.000000e+000
    outer loop
      vertex   -1.848552e+002 2.816104e+002 1.340003e+001
      vertex   -1.848552e+002 3.109045e+002 1.200000e+001
      vertex   -1.848552e+002 2.816104e+002 1.200000e+001
    endloop
  endfacet
  facet normal -1.000000e+000 -0.000000e+000 -0.000000e+000
    outer loop
      vertex   -1.848552e+002 2.816104e+002 1.340003e+001
      vertex   -1.848552e+002 2.816104e+002 1.200000e+001
      vertex   -1.848552e+002 2.523163e+002 1.340003e+001
    endloop
  endfacet
  facet normal -9.988599e-001 0.000000e+000 0.000000e+000
    outer loop
      vertex   -1.848552e+002 2.523163e+002 1.340003e+001
      vertex   -1.848552e+002 2.816104e+002 1.200000e+001
      vertex   -1.848552e+002 2.523163e+002 1.200000e+001
    endloop
  endfacet
  facet normal -0.000000e+000 0.000000e+000 1.000000e+000
    outer loop
      vertex   -1.854552e+002 3.109045e+002 1.200000e+001
      vertex   -1.854552e+002 2.816104e+002 1.200000e+001
      vertex   -1.848552e+002 3.109045e+002 1.200000e+001
    endloop
  endfacet
  facet normal 0.000000e+000 0.000000e+000 2.047838e-002
    outer loop
      vertex   -1.848552e+002 3.109045e+002 1.200000e+001
      vertex   -1.854552e+002 2.816104e+002 1.200000e+001
      vertex   -1.848552e+002 2.816104e+002 1.200000e+001
    endloop
  endfacet
  facet normal 0.000000e+000 0.000000e+000 9.997903e-001
    outer loop
      vertex   -1.848552e+002 2.816104e+002 1.200000e+001
      vertex   -1.854552e+002 2.816104e+002 1.200000e+001
      vertex   -1.854552e+002 2.523163e+002 1.200000e+001
    endloop
  endfacet
  facet normal 0.000000e+000 0.000000e+000 2.047835e-002
    outer loop
      vertex   -1.848552e+002 2.816104e+002 1.200000e+001
      vertex   -1.854552e+002 2.523163e+002 1.200000e+001
      vertex   -1.848552e+002 2.523163e+002 1.200000e+001
    endloop
  endfacet
  facet normal 1.000000e+000 0.000000e+000 -0.000000e+000
    outer loop
      vertex   -2.278552e+002 3.109045e+002 1.200000e+001
      vertex   -2.278552e+002 3.109045e+002 1.340003e+001
      vertex   -2.278552e+002 2.816104e+002 1.200000e+001
    endloop
  endfacet
  facet normal 9.988599e-001 0.000000e+000 0.000000e+000
    outer loop
      vertex   -2.278552e+002 2.816104e+002 1.200000e+001
      vertex   -2.278552e+002 3.109045e+002 1.340003e+001
      vertex   -2.278552e+002 2.816104e+002 1.340003e+001
    endloop
  endfacet
  facet normal 1.000000e+000 0.000000e+000 -0.000000e+000
    outer loop
      vertex   -2.278552e+002 2.816104e+002 1.200000e+001
      vertex   -2.278552e+002 2.816104e+002 1.340003e+001
      vertex   -2.278552e+002 2.523163e+002 1.200000e+001
    endloop
  endfacet
  facet normal 9.988599e-001 0.000000e+000 0.000000e+000
    outer loop
      vertex   -2.278552e+002 2.523163e+002 1.200000e+001
      vertex   -2.278552e+002 2.816104e+002 1.340003e+001
      vertex   -2.278552e+002 2.523163e+002 1.340003e+001
    endloop
  endfacet
  facet normal 7.071068e-001 0.000000e+000 -7.071068e-001
    outer loop
      vertex   -2.272552e+002 3.109045e+002 1.400000e+001
      vertex   -2.272552e+002 2.816104e+002 1.400000e+001
      vertex   -2.278552e+002 3.109045e+002 1.340003e+001
    endloop
  endfacet
  facet normal 2.047252e-002 0.000000e+000 -2.047252e-002
    outer loop
      vertex   -2.278552e+002 3.109045e+002 1.340003e+001
      vertex   -2.272552e+002 2.816104e+002 1.400000e+001
      vertex   -2.278552e+002 2.816104e+002 1.340003e+001
    endloop
  endfacet
  facet normal 7.068104e-001 0.000000e+000 -7.068104e-001
    outer loop
      vertex   -2.278552e+002 2.816104e+002 1.340003e+001
      vertex   -2.272552e+002 2.816104e+002 1.400000e+001
      vertex   -2.272552e+002 2.523163e+002 1.400000e+001
    endloop
  endfacet
  facet normal 2.047250e-002 0.000000e+000 -2.047250e-002
    outer loop
      vertex   -2.278552e+002 2.816104e+002 1.340003e+001
      vertex   -2.272552e+002 2.523163e+002 1.400000e+001
      vertex   -2.278552e+002 2.523163e+002 1.340003e+001
    endloop
  endfacet
  facet normal 1.000000e+000 0.000000e+000 -0.000000e+000
    outer loop
      vertex   -2.272552e+002 3.138163e+002 1.400000e+001
      vertex   -2.272552e+002 3.138163e+002 1.470000e+001
      vertex   -2.272552e+002 3.109045e+002 1.400000e+001
    endloop
  endfacet
  facet normal 2.581098e-001 0.000000e+000 -0.000000e+000
    outer loop
      vertex   -2.272552e+002 3.109045e+002 1.400000e+001
      vertex   -2.272552e+002 3.138163e+002 1.470000e+001
      vertex   -2.272552e+002 2.830663e+002 1.470000e+001
    endloop
  endfacet
  facet normal 2.513723e-002 0.000000e+000 0.000000e+000
    outer loop
      vertex   -2.272552e+002 3.109045e+002 1.400000e+001
      vertex   -2.272552e+002 2.830663e+002 1.470000e+001
      vertex   -2.272552e+002 2.816104e+002 1.400000e+001
    endloop
  endfacet
  facet normal 4.547296e-001 0.000000e+000 -0.000000e+000
    outer loop
      vertex   -2.272552e+002 2.816104e+002 1.400000e+001
      vertex   -2.272552e+002 2.830663e+002 1.470000e+001
      vertex   -2.272552e+002 2.523163e+002 1.470000e+001
    endloop
  endfacet
  facet normal 2.388865e-002 0.000000e+000 0.000000e+000
    outer loop
      vertex   -2.272552e+002 2.816104e+002 1.400000e+001
      vertex   -2.272552e+002 2.523163e+002 1.470000e+001
      vertex   -2.272552e+002 2.523163e+002 1.400000e+001
    endloop
  endfacet
  facet normal -3.553346e-001 0.000000e+000 1.421327e-001
    outer loop
      vertex   -2.317552e+002 2.688163e+002 9.700000e+000
      vertex   -2.297552e+002 2.818163e+002 1.470000e+001
      vertex   -2.317552e+002 2.953751e+002 9.700000e+000
    endloop
  endfacet
  facet normal -5.708649e-001 0.000000e+000 2.283442e-001
    outer loop
      vertex   -2.317552e+002 2.953751e+002 9.700000e+000
      vertex   -2.297552e+002 2.818163e+002 1.470000e+001
      vertex   -2.297552e+002 3.138163e+002 1.470000e+001
    endloop
  endfacet
  facet normal -2.602612e-001 -1.130572e-007 1.041041e-001
    outer loop
      vertex   -2.317552e+002 2.953751e+002 9.700000e+000
      vertex   -2.297552e+002 3.138163e+002 1.470000e+001
      vertex   -2.317552e+002 3.138163e+002 9.700020e+000
    endloop
  endfacet
  facet normal -9.284772e-001 3.914672e-007 3.713895e-001
    outer loop
      vertex   -2.317552e+002 2.498163e+002 9.700020e+000
      vertex   -2.297552e+002 2.498163e+002 1.470000e+001
      vertex   -2.317552e+002 2.688163e+002 9.700000e+000
    endloop
  endfacet
  facet normal -5.757782e-001 0.000000e+000 2.303095e-001
    outer loop
      vertex   -2.317552e+002 2.688163e+002 9.700000e+000
      vertex   -2.297552e+002 2.498163e+002 1.470000e+001
      vertex   -2.297552e+002 2.818163e+002 1.470000e+001
    endloop
  endfacet
  facet normal 9.284752e-001 -4.033348e-007 3.713944e-001
    outer loop
      vertex   -1.809552e+002 3.138163e+002 9.700020e+000
      vertex   -1.829552e+002 3.138163e+002 1.470000e+001
      vertex   -1.809552e+002 2.953751e+002 9.700000e+000
    endloop
  endfacet
  facet normal 5.708646e-001 -6.938894e-018 2.283476e-001
    outer loop
      vertex   -1.809552e+002 2.953751e+002 9.700000e+000
      vertex   -1.829552e+002 3.138163e+002 1.470000e+001
      vertex   -1.829552e+002 2.818163e+002 1.470000e+001
    endloop
  endfacet
  facet normal 3.427220e-001 0.000000e+000 1.370899e-001
    outer loop
      vertex   -1.809552e+002 2.953751e+002 9.700000e+000
      vertex   -1.829552e+002 2.818163e+002 1.470000e+001
      vertex   -1.809552e+002 2.688163e+002 9.700000e+000
    endloop
  endfacet
  facet normal 5.757779e-001 0.000000e+000 2.303129e-001
    outer loop
      vertex   -1.809552e+002 2.688163e+002 9.700000e+000
      vertex   -1.829552e+002 2.818163e+002 1.470000e+001
      vertex   -1.829552e+002 2.498163e+002 1.470000e+001
    endloop
  endfacet
  facet normal 2.531838e-001 1.067497e-007 1.012747e-001
    outer loop
      vertex   -1.809552e+002 2.688163e+002 9.700000e+000
      vertex   -1.829552e+002 2.498163e+002 1.470000e+001
      vertex   -1.809552e+002 2.498163e+002 9.700020e+000
    endloop
  endfacet
  facet normal -0.000000e+000 0.000000e+000 1.000000e+000
    outer loop
      vertex   -2.278552e+002 3.109045e+002 1.200000e+001
      vertex   -2.278552e+002 2.816104e+002 1.200000e+001
      vertex   -2.272552e+002 3.109045e+002 1.200000e+001
    endloop
  endfacet
  facet normal 0.000000e+000 0.000000e+000 2.047681e-002
    outer loop
      vertex   -2.272552e+002 3.109045e+002 1.200000e+001
      vertex   -2.278552e+002 2.816104e+002 1.200000e+001
      vertex   -2.272552e+002 2.816104e+002 1.200000e+001
    endloop
  endfacet
  facet normal 0.000000e+000 0.000000e+000 9.997903e-001
    outer loop
      vertex   -2.272552e+002 2.816104e+002 1.200000e+001
      vertex   -2.278552e+002 2.816104e+002 1.200000e+001
      vertex   -2.278552e+002 2.523163e+002 1.200000e+001
    endloop
  endfacet
  facet normal 0.000000e+000 0.000000e+000 2.047679e-002
    outer loop
      vertex   -2.272552e+002 2.816104e+002 1.200000e+001
      vertex   -2.278552e+002 2.523163e+002 1.200000e+001
      vertex   -2.272552e+002 2.523163e+002 1.200000e+001
    endloop
  endfacet
  facet normal -0.000000e+000 0.000000e+000 1.000000e+000
    outer loop
      vertex   -1.854552e+002 3.138163e+002 1.470000e+001
      vertex   -1.854552e+002 2.830663e+002 1.470000e+001
      vertex   -1.829552e+002 3.138163e+002 1.470000e+001
    endloop
  endfacet
  facet normal 0.000000e+000 0.000000e+000 8.103345e-002
    outer loop
      vertex   -1.829552e+002 3.138163e+002 1.470000e+001
      vertex   -1.854552e+002 2.830663e+002 1.470000e+001
      vertex   -1.829552e+002 2.818163e+002 1.470000e+001
    endloop
  endfacet
  facet normal 0.000000e+000 0.000000e+000 9.289967e-001
    outer loop
      vertex   -1.829552e+002 2.818163e+002 1.470000e+001
      vertex   -1.854552e+002 2.830663e+002 1.470000e+001
      vertex   -1.854552e+002 2.523163e+002 1.470000e+001
    endloop
  endfacet
  facet normal 0.000000e+000 0.000000e+000 8.444308e-002
    outer loop
      vertex   -1.829552e+002 2.818163e+002 1.470000e+001
      vertex   -1.854552e+002 2.523163e+002 1.470000e+001
      vertex   -1.829552e+002 2.498163e+002 1.470000e+001
    endloop
  endfacet
  facet normal 0.000000e+000 0.000000e+000 6.661425e-001
    outer loop
      vertex   -1.829552e+002 2.498163e+002 1.470000e+001
      vertex   -1.854552e+002 2.523163e+002 1.470000e+001
      vertex   -2.272552e+002 2.523163e+002 1.470000e+001
    endloop
  endfacet
  facet normal 0.000000e+000 0.000000e+000 5.634376e-002
    outer loop
      vertex   -1.829552e+002 2.498163e+002 1.470000e+001
      vertex   -2.272552e+002 2.523163e+002 1.470000e+001
      vertex   -2.297552e+002 2.498163e+002 1.470000e+001
    endloop
  endfacet
  facet normal 0.000000e+000 0.000000e+000 7.071068e-001
    outer loop
      vertex   -2.297552e+002 2.498163e+002 1.470000e+001
      vertex   -2.272552e+002 2.523163e+002 1.470000e+001
      vertex   -2.297552e+002 2.818163e+002 1.470000e+001
    endloop
  endfacet
  facet normal -0.000000e+000 0.000000e+000 9.289967e-001
    outer loop
      vertex   -2.297552e+002 2.818163e+002 1.470000e+001
      vertex   -2.272552e+002 2.523163e+002 1.470000e+001
      vertex   -2.272552e+002 2.830663e+002 1.470000e+001
    endloop
  endfacet
  facet normal 0.000000e+000 0.000000e+000 8.944272e-001
    outer loop
      vertex   -2.297552e+002 2.818163e+002 1.470000e+001
      vertex   -2.272552e+002 2.830663e+002 1.470000e+001
      vertex   -2.297552e+002 3.138163e+002 1.470000e+001
    endloop
  endfacet
  facet normal -0.000000e+000 0.000000e+000 9.967114e-001
    outer loop
      vertex   -2.297552e+002 3.138163e+002 1.470000e+001
      vertex   -2.272552e+002 2.830663e+002 1.470000e+001
      vertex   -2.272552e+002 3.138163e+002 1.470000e+001
    endloop
  endfacet
  facet normal 8.936384e-001 0.000000e+000 -4.487876e-001
    outer loop
      vertex   -2.272552e+002 3.109045e+002 1.400000e+001
      vertex   -2.273596e+002 3.109045e+002 1.379218e+001
      vertex   -2.272552e+002 3.138163e+002 1.400000e+001
    endloop
  endfacet
  facet normal 8.908017e-001 6.938894e-018 -4.473630e-001
    outer loop
      vertex   -2.272552e+002 3.138163e+002 1.400000e+001
      vertex   -2.273596e+002 3.109045e+002 1.379218e+001
      vertex   -2.273596e+002 3.138163e+002 1.379218e+001
    endloop
  endfacet
  facet normal 9.932430e-001 0.000000e+000 -1.160533e-001
    outer loop
      vertex   -2.275197e+002 3.138163e+002 1.311629e+001
      vertex   -2.274928e+002 3.138163e+002 1.334731e+001
      vertex   -2.275197e+002 3.109045e+002 1.311629e+001
    endloop
  endfacet
  facet normal 9.900893e-001 -1.734723e-018 -1.156848e-001
    outer loop
      vertex   -2.275197e+002 3.109045e+002 1.311629e+001
      vertex   -2.274928e+002 3.138163e+002 1.334731e+001
      vertex   -2.274928e+002 3.109045e+002 1.334731e+001
    endloop
  endfacet
  facet normal 1.000000e+000 -0.000000e+000 0.000000e+000
    outer loop
      vertex   -2.275197e+002 3.109045e+002 1.311629e+001
      vertex   -2.275197e+002 3.109045e+002 1.288371e+001
      vertex   -2.275197e+002 3.138163e+002 1.311629e+001
    endloop
  endfacet
  facet normal 9.968250e-001 0.000000e+000 0.000000e+000
    outer loop
      vertex   -2.275197e+002 3.138163e+002 1.311629e+001
      vertex   -2.275197e+002 3.109045e+002 1.288371e+001
      vertex   -2.275197e+002 3.138163e+002 1.288371e+001
    endloop
  endfacet
  facet normal 9.730415e-001 0.000000e+000 -2.306299e-001
    outer loop
      vertex   -2.274391e+002 3.109045e+002 1.357360e+001
      vertex   -2.274928e+002 3.109045e+002 1.334731e+001
      vertex   -2.274391e+002 3.138163e+002 1.357360e+001
    endloop
  endfacet
  facet normal 9.699529e-001 0.000000e+000 -2.298978e-001
    outer loop
      vertex   -2.274391e+002 3.138163e+002 1.357360e+001
      vertex   -2.274928e+002 3.109045e+002 1.334731e+001
      vertex   -2.274928e+002 3.138163e+002 1.334731e+001
    endloop
  endfacet
  facet normal 9.397110e-001 0.000000e+000 -3.419695e-001
    outer loop
      vertex   -2.273596e+002 3.109045e+002 1.379218e+001
      vertex   -2.274391e+002 3.109045e+002 1.357360e+001
      vertex   -2.273596e+002 3.138163e+002 1.379218e+001
    endloop
  endfacet
  facet normal 9.367269e-001 0.000000e+000 -3.408836e-001
    outer loop
      vertex   -2.273596e+002 3.138163e+002 1.379218e+001
      vertex   -2.274391e+002 3.109045e+002 1.357360e+001
      vertex   -2.274391e+002 3.138163e+002 1.357360e+001
    endloop
  endfacet
  facet normal 0.000000e+000 -3.145571e-001 0.000000e+000
    outer loop
      vertex   -2.272552e+002 3.109045e+002 1.400000e+001
      vertex   -2.278552e+002 3.109045e+002 1.340003e+001
      vertex   -2.273596e+002 3.109045e+002 1.379218e+001
    endloop
  endfacet
  facet normal 0.000000e+000 -5.247299e-001 0.000000e+000
    outer loop
      vertex   -2.273596e+002 3.109045e+002 1.379218e+001
      vertex   -2.278552e+002 3.109045e+002 1.340003e+001
      vertex   -2.274391e+002 3.109045e+002 1.357360e+001
    endloop
  endfacet
  facet normal 0.000000e+000 -8.092361e-001 0.000000e+000
    outer loop
      vertex   -2.274391e+002 3.109045e+002 1.357360e+001
      vertex   -2.278552e+002 3.109045e+002 1.340003e+001
      vertex   -2.274928e+002 3.109045e+002 1.334731e+001
    endloop
  endfacet
  facet normal -0.000000e+000 -9.996043e-001 0.000000e+000
    outer loop
      vertex   -2.274928e+002 3.109045e+002 1.334731e+001
      vertex   -2.278552e+002 3.109045e+002 1.340003e+001
      vertex   -2.275197e+002 3.109045e+002 1.311629e+001
    endloop
  endfacet
  facet normal -0.000000e+000 -7.634890e-001 -0.000000e+000
    outer loop
      vertex   -2.275197e+002 3.109045e+002 1.311629e+001
      vertex   -2.278552e+002 3.109045e+002 1.340003e+001
      vertex   -2.275197e+002 3.109045e+002 1.288371e+001
    endloop
  endfacet
  facet normal -0.000000e+000 -8.069166e-001 0.000000e+000
    outer loop
      vertex   -2.275197e+002 3.109045e+002 1.288371e+001
      vertex   -2.278552e+002 3.109045e+002 1.340003e+001
      vertex   -2.278552e+002 3.109045e+002 1.200000e+001
    endloop
  endfacet
  facet normal 0.000000e+000 -4.609715e-001 -0.000000e+000
    outer loop
      vertex   -2.275197e+002 3.109045e+002 1.288371e+001
      vertex   -2.278552e+002 3.109045e+002 1.200000e+001
      vertex   -2.274928e+002 3.109045e+002 1.265269e+001
    endloop
  endfacet
  facet normal 0.000000e+000 -6.739727e-001 -0.000000e+000
    outer loop
      vertex   -2.274928e+002 3.109045e+002 1.265269e+001
      vertex   -2.278552e+002 3.109045e+002 1.200000e+001
      vertex   -2.274391e+002 3.109045e+002 1.242636e+001
    endloop
  endfacet
  facet normal 0.000000e+000 -9.010948e-001 -0.000000e+000
    outer loop
      vertex   -2.274391e+002 3.109045e+002 1.242636e+001
      vertex   -2.278552e+002 3.109045e+002 1.200000e+001
      vertex   -2.273596e+002 3.109045e+002 1.220786e+001
    endloop
  endfacet
  facet normal 0.000000e+000 -9.976748e-001 -0.000000e+000
    outer loop
      vertex   -2.273596e+002 3.109045e+002 1.220786e+001
      vertex   -2.278552e+002 3.109045e+002 1.200000e+001
      vertex   -2.272552e+002 3.109045e+002 1.200000e+001
    endloop
  endfacet
  facet normal 9.932430e-001 0.000000e+000 1.160533e-001
    outer loop
      vertex   -2.274928e+002 3.138163e+002 1.265269e+001
      vertex   -2.275197e+002 3.138163e+002 1.288371e+001
      vertex   -2.274928e+002 3.109045e+002 1.265269e+001
    endloop
  endfacet
  facet normal 9.900893e-001 1.734723e-018 1.156848e-001
    outer loop
      vertex   -2.274928e+002 3.109045e+002 1.265269e+001
      vertex   -2.275197e+002 3.138163e+002 1.288371e+001
      vertex   -2.275197e+002 3.109045e+002 1.288371e+001
    endloop
  endfacet
  facet normal 9.730503e-001 -0.000000e+000 2.305931e-001
    outer loop
      vertex   -2.274928e+002 3.109045e+002 1.265269e+001
      vertex   -2.274391e+002 3.109045e+002 1.242636e+001
      vertex   -2.274928e+002 3.138163e+002 1.265269e+001
    endloop
  endfacet
  facet normal 9.699606e-001 0.000000e+000 2.298609e-001
    outer loop
      vertex   -2.274928e+002 3.138163e+002 1.265269e+001
      vertex   -2.274391e+002 3.109045e+002 1.242636e+001
      vertex   -2.274391e+002 3.138163e+002 1.242636e+001
    endloop
  endfacet
  facet normal 9.396726e-001 0.000000e+000 3.420750e-001
    outer loop
      vertex   -2.273596e+002 3.138163e+002 1.220786e+001
      vertex   -2.274391e+002 3.138163e+002 1.242636e+001
      vertex   -2.273596e+002 3.109045e+002 1.220786e+001
    endloop
  endfacet
  facet normal 9.366905e-001 0.000000e+000 3.409894e-001
    outer loop
      vertex   -2.273596e+002 3.109045e+002 1.220786e+001
      vertex   -2.274391e+002 3.138163e+002 1.242636e+001
      vertex   -2.274391e+002 3.109045e+002 1.242636e+001
    endloop
  endfacet
  facet normal 8.936715e-001 -0.000000e+000 4.487218e-001
    outer loop
      vertex   -2.273596e+002 3.109045e+002 1.220786e+001
      vertex   -2.272552e+002 3.109045e+002 1.200000e+001
      vertex   -2.273596e+002 3.138163e+002 1.220786e+001
    endloop
  endfacet
  facet normal 8.908339e-001 0.000000e+000 4.472970e-001
    outer loop
      vertex   -2.273596e+002 3.138163e+002 1.220786e+001
      vertex   -2.272552e+002 3.109045e+002 1.200000e+001
      vertex   -2.272552e+002 3.138163e+002 1.200000e+001
    endloop
  endfacet
  facet normal 0.000000e+000 -8.936189e-001 0.000000e+000
    outer loop
      vertex   -1.854552e+002 3.109045e+002 1.200000e+001
      vertex   -1.848552e+002 3.109045e+002 1.200000e+001
      vertex   -1.853508e+002 3.109045e+002 1.220786e+001
    endloop
  endfacet
  facet normal 0.000000e+000 -9.988486e-001 0.000000e+000
    outer loop
      vertex   -1.853508e+002 3.109045e+002 1.220786e+001
      vertex   -1.848552e+002 3.109045e+002 1.200000e+001
      vertex   -1.852713e+002 3.109045e+002 1.242636e+001
    endloop
  endfacet
  facet normal 0.000000e+000 -8.446275e-001 0.000000e+000
    outer loop
      vertex   -1.852713e+002 3.109045e+002 1.242636e+001
      vertex   -1.848552e+002 3.109045e+002 1.200000e+001
      vertex   -1.852176e+002 3.109045e+002 1.265269e+001
    endloop
  endfacet
  facet normal 0.000000e+000 -5.837052e-001 0.000000e+000
    outer loop
      vertex   -1.852176e+002 3.109045e+002 1.265269e+001
      vertex   -1.848552e+002 3.109045e+002 1.200000e+001
      vertex   -1.851906e+002 3.109045e+002 1.288371e+001
    endloop
  endfacet
  facet normal 0.000000e+000 -8.069166e-001 0.000000e+000
    outer loop
      vertex   -1.851906e+002 3.109045e+002 1.288371e+001
      vertex   -1.848552e+002 3.109045e+002 1.200000e+001
      vertex   -1.848552e+002 3.109045e+002 1.340003e+001
    endloop
  endfacet
  facet normal 0.000000e+000 -5.447901e-001 0.000000e+000
    outer loop
      vertex   -1.851906e+002 3.109045e+002 1.288371e+001
      vertex   -1.848552e+002 3.109045e+002 1.340003e+001
      vertex   -1.851906e+002 3.109045e+002 1.311629e+001
    endloop
  endfacet
  facet normal 0.000000e+000 -8.333158e-001 0.000000e+000
    outer loop
      vertex   -1.851906e+002 3.109045e+002 1.311629e+001
      vertex   -1.848552e+002 3.109045e+002 1.340003e+001
      vertex   -1.852176e+002 3.109045e+002 1.334731e+001
    endloop
  endfacet
  facet normal 0.000000e+000 -9.961056e-001 0.000000e+000
    outer loop
      vertex   -1.852176e+002 3.109045e+002 1.334731e+001
      vertex   -1.848552e+002 3.109045e+002 1.340003e+001
      vertex   -1.852713e+002 3.109045e+002 1.357360e+001
    endloop
  endfacet
  facet normal 0.000000e+000 -7.356167e-001 0.000000e+000
    outer loop
      vertex   -1.852713e+002 3.109045e+002 1.357360e+001
      vertex   -1.848552e+002 3.109045e+002 1.340003e+001
      vertex   -1.853508e+002 3.109045e+002 1.379218e+001
    endloop
  endfacet
  facet normal 0.000000e+000 -4.222258e-001 0.000000e+000
    outer loop
      vertex   -1.853508e+002 3.109045e+002 1.379218e+001
      vertex   -1.848552e+002 3.109045e+002 1.340003e+001
      vertex   -1.854552e+002 3.109045e+002 1.400000e+001
    endloop
  endfacet
  facet normal -9.932354e-001 0.000000e+000 1.161180e-001
    outer loop
      vertex   -1.851906e+002 3.138163e+002 1.288371e+001
      vertex   -1.852176e+002 3.138163e+002 1.265269e+001
      vertex   -1.851906e+002 3.109045e+002 1.288371e+001
    endloop
  endfacet
  facet normal -9.900817e-001 1.734723e-018 1.157493e-001
    outer loop
      vertex   -1.851906e+002 3.109045e+002 1.288371e+001
      vertex   -1.852176e+002 3.138163e+002 1.265269e+001
      vertex   -1.852176e+002 3.109045e+002 1.265269e+001
    endloop
  endfacet
  facet normal -8.935858e-001 0.000000e+000 -4.488924e-001
    outer loop
      vertex   -1.853508e+002 3.109045e+002 1.379218e+001
      vertex   -1.854552e+002 3.109045e+002 1.400000e+001
      vertex   -1.853508e+002 3.138163e+002 1.379218e+001
    endloop
  endfacet
  facet normal -8.907489e-001 0.000000e+000 -4.474673e-001
    outer loop
      vertex   -1.853508e+002 3.138163e+002 1.379218e+001
      vertex   -1.854552e+002 3.109045e+002 1.400000e+001
      vertex   -1.854552e+002 3.138163e+002 1.400000e+001
    endloop
  endfacet
  facet normal -9.397110e-001 -0.000000e+000 -3.419695e-001
    outer loop
      vertex   -1.853508e+002 3.138163e+002 1.379218e+001
      vertex   -1.852713e+002 3.138163e+002 1.357360e+001
      vertex   -1.853508e+002 3.109045e+002 1.379218e+001
    endloop
  endfacet
  facet normal -9.367269e-001 0.000000e+000 -3.408836e-001
    outer loop
      vertex   -1.853508e+002 3.109045e+002 1.379218e+001
      vertex   -1.852713e+002 3.138163e+002 1.357360e+001
      vertex   -1.852713e+002 3.109045e+002 1.357360e+001
    endloop
  endfacet
  facet normal -9.396726e-001 0.000000e+000 3.420750e-001
    outer loop
      vertex   -1.852713e+002 3.138163e+002 1.242636e+001
      vertex   -1.853508e+002 3.138163e+002 1.220786e+001
      vertex   -1.852713e+002 3.109045e+002 1.242636e+001
    endloop
  endfacet
  facet normal -9.366905e-001 0.000000e+000 3.409894e-001
    outer loop
      vertex   -1.852713e+002 3.109045e+002 1.242636e+001
      vertex   -1.853508e+002 3.138163e+002 1.220786e+001
      vertex   -1.853508e+002 3.109045e+002 1.220786e+001
    endloop
  endfacet
  facet normal -9.730503e-001 0.000000e+000 2.305931e-001
    outer loop
      vertex   -1.852176e+002 3.138163e+002 1.265269e+001
      vertex   -1.852713e+002 3.138163e+002 1.242636e+001
      vertex   -1.852176e+002 3.109045e+002 1.265269e+001
    endloop
  endfacet
  facet normal -9.699606e-001 0.000000e+000 2.298609e-001
    outer loop
      vertex   -1.852176e+002 3.109045e+002 1.265269e+001
      vertex   -1.852713e+002 3.138163e+002 1.242636e+001
      vertex   -1.852713e+002 3.109045e+002 1.242636e+001
    endloop
  endfacet
  facet normal -9.932354e-001 0.000000e+000 -1.161180e-001
    outer loop
      vertex   -1.851906e+002 3.109045e+002 1.311629e+001
      vertex   -1.852176e+002 3.109045e+002 1.334731e+001
      vertex   -1.851906e+002 3.138163e+002 1.311629e+001
    endloop
  endfacet
  facet normal -9.900817e-001 -1.734723e-018 -1.157493e-001
    outer loop
      vertex   -1.851906e+002 3.138163e+002 1.311629e+001
      vertex   -1.852176e+002 3.109045e+002 1.334731e+001
      vertex   -1.852176e+002 3.138163e+002 1.334731e+001
    endloop
  endfacet
  facet normal -8.936189e-001 0.000000e+000 4.488266e-001
    outer loop
      vertex   -1.854552e+002 3.109045e+002 1.200000e+001
      vertex   -1.853508e+002 3.109045e+002 1.220786e+001
      vertex   -1.854552e+002 3.138163e+002 1.200000e+001
    endloop
  endfacet
  facet normal -8.907810e-001 -6.938894e-018 4.474013e-001
    outer loop
      vertex   -1.854552e+002 3.138163e+002 1.200000e+001
      vertex   -1.853508e+002 3.109045e+002 1.220786e+001
      vertex   -1.853508e+002 3.138163e+002 1.220786e+001
    endloop
  endfacet
  facet normal -1.000000e+000 -0.000000e+000 -0.000000e+000
    outer loop
      vertex   -1.851906e+002 3.138163e+002 1.311629e+001
      vertex   -1.851906e+002 3.138163e+002 1.288371e+001
      vertex   -1.851906e+002 3.109045e+002 1.311629e+001
    endloop
  endfacet
  facet normal -9.968250e-001 0.000000e+000 0.000000e+000
    outer loop
      vertex   -1.851906e+002 3.109045e+002 1.311629e+001
      vertex   -1.851906e+002 3.138163e+002 1.288371e+001
      vertex   -1.851906e+002 3.109045e+002 1.288371e+001
    endloop
  endfacet
  facet normal -9.730415e-001 0.000000e+000 -2.306299e-001
    outer loop
      vertex   -1.852176e+002 3.109045e+002 1.334731e+001
      vertex   -1.852713e+002 3.109045e+002 1.357360e+001
      vertex   -1.852176e+002 3.138163e+002 1.334731e+001
    endloop
  endfacet
  facet normal -9.699529e-001 0.000000e+000 -2.298978e-001
    outer loop
      vertex   -1.852176e+002 3.138163e+002 1.334731e+001
      vertex   -1.852713e+002 3.109045e+002 1.357360e+001
      vertex   -1.852713e+002 3.138163e+002 1.357360e+001
    endloop
  endfacet
  facet normal 6.964772e-001 7.175789e-001 -0.000000e+000
    outer loop
      vertex   -2.272552e+002 3.138163e+002 0.000000e+000
      vertex   -2.272552e+002 3.138163e+002 1.700020e+000
      vertex   -2.222552e+002 3.089633e+002 0.000000e+000
    endloop
  endfacet
  facet normal 6.766298e-001 6.971301e-001 -0.000000e+000
    outer loop
      vertex   -2.222552e+002 3.089633e+002 0.000000e+000
      vertex   -2.272552e+002 3.138163e+002 1.700020e+000
      vertex   -2.222552e+002 3.089633e+002 1.700020e+000
    endloop
  endfacet
  facet normal 6.964750e-001 -7.175811e-001 0.000000e+000
    outer loop
      vertex   -2.222552e+002 3.041104e+002 0.000000e+000
      vertex   -2.222552e+002 3.041104e+002 1.700020e+000
      vertex   -2.272552e+002 2.992575e+002 0.000000e+000
    endloop
  endfacet
  facet normal 6.766275e-001 -6.971321e-001 0.000000e+000
    outer loop
      vertex   -2.272552e+002 2.992575e+002 0.000000e+000
      vertex   -2.222552e+002 3.041104e+002 1.700020e+000
      vertex   -2.272552e+002 2.992575e+002 1.700020e+000
    endloop
  endfacet
  facet normal -6.964772e-001 7.175789e-001 0.000000e+000
    outer loop
      vertex   -1.904552e+002 3.089633e+002 0.000000e+000
      vertex   -1.904552e+002 3.089633e+002 1.700020e+000
      vertex   -1.854552e+002 3.138163e+002 0.000000e+000
    endloop
  endfacet
  facet normal -6.766298e-001 6.971301e-001 0.000000e+000
    outer loop
      vertex   -1.854552e+002 3.138163e+002 0.000000e+000
      vertex   -1.904552e+002 3.089633e+002 1.700020e+000
      vertex   -1.854552e+002 3.138163e+002 1.700020e+000
    endloop
  endfacet
  facet normal 0.000000e+000 1.000000e+000 0.000000e+000
    outer loop
      vertex   -2.222552e+002 3.089633e+002 0.000000e+000
      vertex   -2.222552e+002 3.089633e+002 1.700020e+000
      vertex   -1.904552e+002 3.089633e+002 0.000000e+000
    endloop
  endfacet
  facet normal 0.000000e+000 9.985741e-001 -0.000000e+000
    outer loop
      vertex   -1.904552e+002 3.089633e+002 0.000000e+000
      vertex   -2.222552e+002 3.089633e+002 1.700020e+000
      vertex   -1.904552e+002 3.089633e+002 1.700020e+000
    endloop
  endfacet
  facet normal -6.964750e-001 -7.175811e-001 0.000000e+000
    outer loop
      vertex   -1.854552e+002 2.992575e+002 0.000000e+000
      vertex   -1.854552e+002 2.992575e+002 1.700020e+000
      vertex   -1.904552e+002 3.041104e+002 0.000000e+000
    endloop
  endfacet
  facet normal -6.766275e-001 -6.971321e-001 0.000000e+000
    outer loop
      vertex   -1.904552e+002 3.041104e+002 0.000000e+000
      vertex   -1.854552e+002 2.992575e+002 1.700020e+000
      vertex   -1.904552e+002 3.041104e+002 1.700020e+000
    endloop
  endfacet
  facet normal 1.000000e+000 0.000000e+000 -0.000000e+000
    outer loop
      vertex   -2.272552e+002 3.138163e+002 1.700020e+000
      vertex   -2.272552e+002 3.138163e+002 9.700020e+000
      vertex   -2.272552e+002 2.992575e+002 1.700020e+000
    endloop
  endfacet
  facet normal 8.576991e-001 0.000000e+000 -0.000000e+000
    outer loop
      vertex   -2.272552e+002 2.992575e+002 1.700020e+000
      vertex   -2.272552e+002 3.138163e+002 9.700020e+000
      vertex   -2.272552e+002 2.816104e+002 1.200000e+001
    endloop
  endfacet
  facet normal 5.040854e-001 0.000000e+000 0.000000e+000
    outer loop
      vertex   -2.272552e+002 2.992575e+002 1.700020e+000
      vertex   -2.272552e+002 2.816104e+002 1.200000e+001
      vertex   -2.272552e+002 2.668751e+002 1.700020e+000
    endloop
  endfacet
  facet normal 8.968118e-001 0.000000e+000 -0.000000e+000
    outer loop
      vertex   -2.272552e+002 2.668751e+002 1.700020e+000
      vertex   -2.272552e+002 2.816104e+002 1.200000e+001
      vertex   -2.272552e+002 2.523163e+002 9.700020e+000
    endloop
  endfacet
  facet normal 4.815793e-001 0.000000e+000 0.000000e+000
    outer loop
      vertex   -2.272552e+002 2.668751e+002 1.700020e+000
      vertex   -2.272552e+002 2.523163e+002 9.700020e+000
      vertex   -2.272552e+002 2.523163e+002 1.700020e+000
    endloop
  endfacet
  facet normal 1.000000e+000 0.000000e+000 0.000000e+000
    outer loop
      vertex   -2.272552e+002 3.138163e+002 1.200000e+001
      vertex   -2.272552e+002 3.109045e+002 1.200000e+001
      vertex   -2.272552e+002 3.138163e+002 9.700020e+000
    endloop
  endfacet
  facet normal 5.623714e-001 0.000000e+000 0.000000e+000
    outer loop
      vertex   -2.272552e+002 3.138163e+002 9.700020e+000
      vertex   -2.272552e+002 3.109045e+002 1.200000e+001
      vertex   -2.272552e+002 2.816104e+002 1.200000e+001
    endloop
  endfacet
  facet normal 7.827231e-002 0.000000e+000 0.000000e+000
    outer loop
      vertex   -2.272552e+002 2.816104e+002 1.200000e+001
      vertex   -2.272552e+002 2.523163e+002 1.200000e+001
      vertex   -2.272552e+002 2.523163e+002 9.700020e+000
    endloop
  endfacet
  facet normal 1.000000e+000 0.000000e+000 0.000000e+000
    outer loop
      vertex   -2.272552e+002 2.668751e+002 0.000000e+000
      vertex   -2.272552e+002 2.992575e+002 0.000000e+000
      vertex   -2.272552e+002 2.668751e+002 1.700020e+000
    endloop
  endfacet
  facet normal 5.242614e-002 -0.000000e+000 0.000000e+000
    outer loop
      vertex   -2.272552e+002 2.668751e+002 1.700020e+000
      vertex   -2.272552e+002 2.992575e+002 0.000000e+000
      vertex   -2.272552e+002 2.992575e+002 1.700020e+000
    endloop
  endfacet
  facet normal 0.000000e+000 4.902600e-001 -0.000000e+000
    outer loop
      vertex   -2.272552e+002 3.138163e+002 1.700020e+000
      vertex   -2.317552e+002 3.138163e+002 9.700020e+000
      vertex   -2.272552e+002 3.138163e+002 9.700020e+000
    endloop
  endfacet
  facet normal 0.000000e+000 8.944265e-001 0.000000e+000
    outer loop
      vertex   -2.272552e+002 3.138163e+002 9.700020e+000
      vertex   -2.317552e+002 3.138163e+002 9.700020e+000
      vertex   -2.297552e+002 3.138163e+002 1.470000e+001
    endloop
  endfacet
  facet normal 0.000000e+000 3.740479e-001 0.000000e+000
    outer loop
      vertex   -2.272552e+002 3.138163e+002 9.700020e+000
      vertex   -2.297552e+002 3.138163e+002 1.470000e+001
      vertex   -2.274928e+002 3.138163e+002 1.265269e+001
    endloop
  endfacet
  facet normal 0.000000e+000 6.586031e-001 0.000000e+000
    outer loop
      vertex   -2.274928e+002 3.138163e+002 1.265269e+001
      vertex   -2.297552e+002 3.138163e+002 1.470000e+001
      vertex   -2.275197e+002 3.138163e+002 1.288371e+001
    endloop
  endfacet
  facet normal 0.000000e+000 7.761171e-001 -0.000000e+000
    outer loop
      vertex   -2.275197e+002 3.138163e+002 1.288371e+001
      vertex   -2.297552e+002 3.138163e+002 1.470000e+001
      vertex   -2.275197e+002 3.138163e+002 1.311629e+001
    endloop
  endfacet
  facet normal 0.000000e+000 8.775543e-001 -0.000000e+000
    outer loop
      vertex   -2.275197e+002 3.138163e+002 1.311629e+001
      vertex   -2.297552e+002 3.138163e+002 1.470000e+001
      vertex   -2.274928e+002 3.138163e+002 1.334731e+001
    endloop
  endfacet
  facet normal 0.000000e+000 9.535040e-001 -0.000000e+000
    outer loop
      vertex   -2.274928e+002 3.138163e+002 1.334731e+001
      vertex   -2.297552e+002 3.138163e+002 1.470000e+001
      vertex   -2.274391e+002 3.138163e+002 1.357360e+001
    endloop
  endfacet
  facet normal 0.000000e+000 9.580113e-001 -0.000000e+000
    outer loop
      vertex   -2.274391e+002 3.138163e+002 1.357360e+001
      vertex   -2.297552e+002 3.138163e+002 1.470000e+001
      vertex   -2.272552e+002 3.138163e+002 1.470000e+001
    endloop
  endfacet
  facet normal 0.000000e+000 1.860738e-001 0.000000e+000
    outer loop
      vertex   -2.274391e+002 3.138163e+002 1.357360e+001
      vertex   -2.272552e+002 3.138163e+002 1.470000e+001
      vertex   -2.273596e+002 3.138163e+002 1.379218e+001
    endloop
  endfacet
  facet normal 0.000000e+000 3.437836e-001 0.000000e+000
    outer loop
      vertex   -2.273596e+002 3.138163e+002 1.379218e+001
      vertex   -2.272552e+002 3.138163e+002 1.470000e+001
      vertex   -2.272552e+002 3.138163e+002 1.400000e+001
    endloop
  endfacet
  facet normal 0.000000e+000 4.902600e-001 0.000000e+000
    outer loop
      vertex   -2.317552e+002 3.138163e+002 9.700020e+000
      vertex   -2.272552e+002 3.138163e+002 1.700020e+000
      vertex   -2.317552e+002 3.138163e+002 1.700020e+000
    endloop
  endfacet
  facet normal -0.000000e+000 3.534052e-001 0.000000e+000
    outer loop
      vertex   -2.317552e+002 3.138163e+002 1.700020e+000
      vertex   -2.272552e+002 3.138163e+002 1.700020e+000
      vertex   -2.272552e+002 3.138163e+002 0.000000e+000
    endloop
  endfacet
  facet normal 0.000000e+000 9.354703e-001 0.000000e+000
    outer loop
      vertex   -2.317552e+002 3.138163e+002 1.700020e+000
      vertex   -2.272552e+002 3.138163e+002 0.000000e+000
      vertex   -2.317552e+002 3.138163e+002 0.000000e+000
    endloop
  endfacet
  facet normal 0.000000e+000 1.518185e-001 0.000000e+000
    outer loop
      vertex   -2.274928e+002 3.138163e+002 1.265269e+001
      vertex   -2.274391e+002 3.138163e+002 1.242636e+001
      vertex   -2.272552e+002 3.138163e+002 9.700020e+000
    endloop
  endfacet
  facet normal 0.000000e+000 2.575971e-002 0.000000e+000
    outer loop
      vertex   -2.272552e+002 3.138163e+002 9.700020e+000
      vertex   -2.274391e+002 3.138163e+002 1.242636e+001
      vertex   -2.273596e+002 3.138163e+002 1.220786e+001
    endloop
  endfacet
  facet normal 0.000000e+000 4.158157e-002 -0.000000e+000
    outer loop
      vertex   -2.272552e+002 3.138163e+002 9.700020e+000
      vertex   -2.273596e+002 3.138163e+002 1.220786e+001
      vertex   -2.272552e+002 3.138163e+002 1.200000e+001
    endloop
  endfacet
  facet normal 0.000000e+000 7.474130e-001 0.000000e+000
    outer loop
      vertex   -1.829552e+002 3.138163e+002 1.470000e+001
      vertex   -1.809552e+002 3.138163e+002 9.700020e+000
      vertex   -1.854552e+002 3.138163e+002 9.700020e+000
    endloop
  endfacet
  facet normal -0.000000e+000 8.715748e-001 0.000000e+000
    outer loop
      vertex   -1.854552e+002 3.138163e+002 9.700020e+000
      vertex   -1.809552e+002 3.138163e+002 9.700020e+000
      vertex   -1.809552e+002 3.138163e+002 1.700020e+000
    endloop
  endfacet
  facet normal 0.000000e+000 4.902625e-001 0.000000e+000
    outer loop
      vertex   -1.854552e+002 3.138163e+002 9.700020e+000
      vertex   -1.809552e+002 3.138163e+002 1.700020e+000
      vertex   -1.854552e+002 3.138163e+002 1.700020e+000
    endloop
  endfacet
  facet normal -0.000000e+000 3.534031e-001 0.000000e+000
    outer loop
      vertex   -1.854552e+002 3.138163e+002 1.700020e+000
      vertex   -1.809552e+002 3.138163e+002 1.700020e+000
      vertex   -1.809552e+002 3.138163e+002 0.000000e+000
    endloop
  endfacet
  facet normal 0.000000e+000 9.354711e-001 0.000000e+000
    outer loop
      vertex   -1.854552e+002 3.138163e+002 1.700020e+000
      vertex   -1.809552e+002 3.138163e+002 0.000000e+000
      vertex   -1.854552e+002 3.138163e+002 0.000000e+000
    endloop
  endfacet
  facet normal -0.000000e+000 4.488266e-001 0.000000e+000
    outer loop
      vertex   -1.854552e+002 3.138163e+002 1.200000e+001
      vertex   -1.853508e+002 3.138163e+002 1.220786e+001
      vertex   -1.854552e+002 3.138163e+002 9.700020e+000
    endloop
  endfacet
  facet normal 0.000000e+000 2.575871e-002 0.000000e+000
    outer loop
      vertex   -1.854552e+002 3.138163e+002 9.700020e+000
      vertex   -1.853508e+002 3.138163e+002 1.220786e+001
      vertex   -1.852713e+002 3.138163e+002 1.242636e+001
    endloop
  endfacet
  facet normal 0.000000e+000 1.292195e-002 0.000000e+000
    outer loop
      vertex   -1.854552e+002 3.138163e+002 9.700020e+000
      vertex   -1.852713e+002 3.138163e+002 1.242636e+001
      vertex   -1.852176e+002 3.138163e+002 1.265269e+001
    endloop
  endfacet
  facet normal 0.000000e+000 3.740383e-001 0.000000e+000
    outer loop
      vertex   -1.854552e+002 3.138163e+002 9.700020e+000
      vertex   -1.852176e+002 3.138163e+002 1.265269e+001
      vertex   -1.829552e+002 3.138163e+002 1.470000e+001
    endloop
  endfacet
  facet normal 0.000000e+000 5.317994e-002 0.000000e+000
    outer loop
      vertex   -1.829552e+002 3.138163e+002 1.470000e+001
      vertex   -1.852176e+002 3.138163e+002 1.265269e+001
      vertex   -1.851906e+002 3.138163e+002 1.288371e+001
    endloop
  endfacet
  facet normal 0.000000e+000 6.588987e-002 0.000000e+000
    outer loop
      vertex   -1.829552e+002 3.138163e+002 1.470000e+001
      vertex   -1.851906e+002 3.138163e+002 1.288371e+001
      vertex   -1.851906e+002 3.138163e+002 1.311629e+001
    endloop
  endfacet
  facet normal 0.000000e+000 8.775809e-001 -0.000000e+000
    outer loop
      vertex   -1.851906e+002 3.138163e+002 1.311629e+001
      vertex   -1.852176e+002 3.138163e+002 1.334731e+001
      vertex   -1.829552e+002 3.138163e+002 1.470000e+001
    endloop
  endfacet
  facet normal 0.000000e+000 8.609936e-002 0.000000e+000
    outer loop
      vertex   -1.829552e+002 3.138163e+002 1.470000e+001
      vertex   -1.852176e+002 3.138163e+002 1.334731e+001
      vertex   -1.852713e+002 3.138163e+002 1.357360e+001
    endloop
  endfacet
  facet normal 0.000000e+000 4.373634e-001 0.000000e+000
    outer loop
      vertex   -1.829552e+002 3.138163e+002 1.470000e+001
      vertex   -1.852713e+002 3.138163e+002 1.357360e+001
      vertex   -1.854552e+002 3.138163e+002 1.470000e+001
    endloop
  endfacet
  facet normal 0.000000e+000 4.735779e-002 0.000000e+000
    outer loop
      vertex   -1.854552e+002 3.138163e+002 1.470000e+001
      vertex   -1.852713e+002 3.138163e+002 1.357360e+001
      vertex   -1.853508e+002 3.138163e+002 1.379218e+001
    endloop
  endfacet
  facet normal 0.000000e+000 1.142483e-001 0.000000e+000
    outer loop
      vertex   -1.854552e+002 3.138163e+002 1.470000e+001
      vertex   -1.853508e+002 3.138163e+002 1.379218e+001
      vertex   -1.854552e+002 3.138163e+002 1.400000e+001
    endloop
  endfacet
  facet normal 3.979758e-001 0.000000e+000 0.000000e+000
    outer loop
      vertex   -1.809552e+002 3.138163e+002 1.700020e+000
      vertex   -1.809552e+002 2.953751e+002 9.700000e+000
      vertex   -1.809552e+002 2.953751e+002 1.700020e+000
    endloop
  endfacet
  facet normal 1.000000e+000 0.000000e+000 -0.000000e+000
    outer loop
      vertex   -1.809552e+002 2.953751e+002 1.700020e+000
      vertex   -1.809552e+002 2.953751e+002 9.700000e+000
      vertex   -1.809552e+002 2.688163e+002 1.700020e+000
    endloop
  endfacet
  facet normal 6.387892e-002 0.000000e+000 0.000000e+000
    outer loop
      vertex   -1.809552e+002 2.953751e+002 1.700020e+000
      vertex   -1.809552e+002 2.688163e+002 1.700020e+000
      vertex   -1.809552e+002 2.688163e+002 0.000000e+000
    endloop
  endfacet
  facet normal 9.173959e-001 0.000000e+000 -0.000000e+000
    outer loop
      vertex   -1.809552e+002 3.138163e+002 1.700020e+000
      vertex   -1.809552e+002 3.138163e+002 9.700020e+000
      vertex   -1.809552e+002 2.953751e+002 9.700000e+000
    endloop
  endfacet
  facet normal 2.884173e-001 0.000000e+000 0.000000e+000
    outer loop
      vertex   -1.809552e+002 2.953751e+002 9.700000e+000
      vertex   -1.809552e+002 2.688163e+002 9.700000e+000
      vertex   -1.809552e+002 2.688163e+002 1.700020e+000
    endloop
  endfacet
  facet normal 1.000000e+000 0.000000e+000 -0.000000e+000
    outer loop
      vertex   -1.809552e+002 2.688163e+002 1.700020e+000
      vertex   -1.809552e+002 2.688163e+002 9.700000e+000
      vertex   -1.809552e+002 2.498163e+002 1.700020e+000
    endloop
  endfacet
  facet normal 9.216357e-001 0.000000e+000 0.000000e+000
    outer loop
      vertex   -1.809552e+002 2.498163e+002 1.700020e+000
      vertex   -1.809552e+002 2.688163e+002 9.700000e+000
      vertex   -1.809552e+002 2.498163e+002 9.700020e+000
    endloop
  endfacet
  facet normal 6.387892e-002 0.000000e+000 0.000000e+000
    outer loop
      vertex   -1.809552e+002 2.688163e+002 0.000000e+000
      vertex   -1.809552e+002 2.953751e+002 0.000000e+000
      vertex   -1.809552e+002 2.953751e+002 1.700020e+000
    endloop
  endfacet
  facet normal 0.000000e+000 -1.000000e+000 0.000000e+000
    outer loop
      vertex   -2.317552e+002 2.498163e+002 1.700020e+000
      vertex   -1.809552e+002 2.498163e+002 1.700020e+000
      vertex   -2.317552e+002 2.498163e+002 9.700020e+000
    endloop
  endfacet
  facet normal 0.000000e+000 -1.555631e-001 0.000000e+000
    outer loop
      vertex   -2.317552e+002 2.498163e+002 9.700020e+000
      vertex   -1.809552e+002 2.498163e+002 1.700020e+000
      vertex   -1.809552e+002 2.498163e+002 9.700020e+000
    endloop
  endfacet
  facet normal 0.000000e+000 -1.019250e-001 0.000000e+000
    outer loop
      vertex   -2.317552e+002 2.498163e+002 9.700020e+000
      vertex   -1.809552e+002 2.498163e+002 9.700020e+000
      vertex   -1.829552e+002 2.498163e+002 1.470000e+001
    endloop
  endfacet
  facet normal 0.000000e+000 -1.000000e+000 0.000000e+000
    outer loop
      vertex   -2.317552e+002 2.498163e+002 0.000000e+000
      vertex   -1.809552e+002 2.498163e+002 0.000000e+000
      vertex   -2.317552e+002 2.498163e+002 1.700020e+000
    endloop
  endfacet
  facet normal 0.000000e+000 -3.344623e-002 0.000000e+000
    outer loop
      vertex   -2.317552e+002 2.498163e+002 1.700020e+000
      vertex   -1.809552e+002 2.498163e+002 0.000000e+000
      vertex   -1.809552e+002 2.498163e+002 1.700020e+000
    endloop
  endfacet
  facet normal -0.000000e+000 -1.019250e-001 0.000000e+000
    outer loop
      vertex   -1.829552e+002 2.498163e+002 1.470000e+001
      vertex   -2.297552e+002 2.498163e+002 1.470000e+001
      vertex   -2.317552e+002 2.498163e+002 9.700020e+000
    endloop
  endfacet
  facet normal 0.000000e+000 9.821737e-001 -0.000000e+000
    outer loop
      vertex   -1.854552e+002 2.523163e+002 1.700020e+000
      vertex   -2.272552e+002 2.523163e+002 9.700020e+000
      vertex   -1.854552e+002 2.523163e+002 9.700020e+000
    endloop
  endfacet
  facet normal 0.000000e+000 5.494023e-002 0.000000e+000
    outer loop
      vertex   -1.854552e+002 2.523163e+002 9.700020e+000
      vertex   -2.272552e+002 2.523163e+002 9.700020e+000
      vertex   -2.272552e+002 2.523163e+002 1.200000e+001
    endloop
  endfacet
  facet normal 0.000000e+000 9.984896e-001 -0.000000e+000
    outer loop
      vertex   -1.854552e+002 2.523163e+002 9.700020e+000
      vertex   -2.272552e+002 2.523163e+002 1.200000e+001
      vertex   -1.854552e+002 2.523163e+002 1.200000e+001
    endloop
  endfacet
  facet normal 0.000000e+000 4.779239e-002 0.000000e+000
    outer loop
      vertex   -1.854552e+002 2.523163e+002 1.200000e+001
      vertex   -2.272552e+002 2.523163e+002 1.200000e+001
      vertex   -2.272552e+002 2.523163e+002 1.400000e+001
    endloop
  endfacet
  facet normal 0.000000e+000 9.988573e-001 -0.000000e+000
    outer loop
      vertex   -1.854552e+002 2.523163e+002 1.200000e+001
      vertex   -2.272552e+002 2.523163e+002 1.400000e+001
      vertex   -1.854552e+002 2.523163e+002 1.400000e+001
    endloop
  endfacet
  facet normal 0.000000e+000 1.674399e-002 0.000000e+000
    outer loop
      vertex   -1.854552e+002 2.523163e+002 1.400000e+001
      vertex   -2.272552e+002 2.523163e+002 1.400000e+001
      vertex   -2.272552e+002 2.523163e+002 1.470000e+001
    endloop
  endfacet
  facet normal 0.000000e+000 9.998598e-001 -0.000000e+000
    outer loop
      vertex   -1.854552e+002 2.523163e+002 1.400000e+001
      vertex   -2.272552e+002 2.523163e+002 1.470000e+001
      vertex   -1.854552e+002 2.523163e+002 1.470000e+001
    endloop
  endfacet
  facet normal 0.000000e+000 9.821737e-001 0.000000e+000
    outer loop
      vertex   -2.272552e+002 2.523163e+002 9.700020e+000
      vertex   -1.854552e+002 2.523163e+002 1.700020e+000
      vertex   -2.272552e+002 2.523163e+002 1.700020e+000
    endloop
  endfacet
  facet normal -0.000000e+000 4.063673e-002 0.000000e+000
    outer loop
      vertex   -2.272552e+002 2.523163e+002 1.700020e+000
      vertex   -1.854552e+002 2.523163e+002 1.700020e+000
      vertex   -1.854552e+002 2.523163e+002 0.000000e+000
    endloop
  endfacet
  facet normal 0.000000e+000 9.991740e-001 0.000000e+000
    outer loop
      vertex   -2.272552e+002 2.523163e+002 1.700020e+000
      vertex   -1.854552e+002 2.523163e+002 0.000000e+000
      vertex   -2.272552e+002 2.523163e+002 0.000000e+000
    endloop
  endfacet
  facet normal 0.000000e+000 1.000000e+000 0.000000e+000
    outer loop
      vertex   -2.278552e+002 2.523163e+002 1.200000e+001
      vertex   -2.278552e+002 2.523163e+002 1.340003e+001
      vertex   -2.272552e+002 2.523163e+002 1.200000e+001
    endloop
  endfacet
  facet normal 0.000000e+000 3.938981e-001 -0.000000e+000
    outer loop
      vertex   -2.272552e+002 2.523163e+002 1.200000e+001
      vertex   -2.278552e+002 2.523163e+002 1.340003e+001
      vertex   -2.272552e+002 2.523163e+002 1.400000e+001
    endloop
  endfacet
  facet normal 0.000000e+000 7.071338e-001 0.000000e+000
    outer loop
      vertex   -1.854552e+002 2.523163e+002 1.400000e+001
      vertex   -1.848552e+002 2.523163e+002 1.340003e+001
      vertex   -1.854552e+002 2.523163e+002 1.200000e+001
    endloop
  endfacet
  facet normal 0.000000e+000 9.191432e-001 0.000000e+000
    outer loop
      vertex   -1.854552e+002 2.523163e+002 1.200000e+001
      vertex   -1.848552e+002 2.523163e+002 1.340003e+001
      vertex   -1.848552e+002 2.523163e+002 1.200000e+001
    endloop
  endfacet
  facet normal -9.986248e-001 0.000000e+000 0.000000e+000
    outer loop
      vertex   -1.854552e+002 2.992575e+002 0.000000e+000
      vertex   -1.854552e+002 2.668751e+002 1.700020e+000
      vertex   -1.854552e+002 2.992575e+002 1.700020e+000
    endloop
  endfacet
  facet normal -5.040854e-001 0.000000e+000 0.000000e+000
    outer loop
      vertex   -1.854552e+002 2.992575e+002 1.700020e+000
      vertex   -1.854552e+002 2.668751e+002 1.700020e+000
      vertex   -1.854552e+002 2.816104e+002 1.200000e+001
    endloop
  endfacet
  facet normal -8.576991e-001 0.000000e+000 0.000000e+000
    outer loop
      vertex   -1.854552e+002 2.992575e+002 1.700020e+000
      vertex   -1.854552e+002 2.816104e+002 1.200000e+001
      vertex   -1.854552e+002 3.138163e+002 9.700020e+000
    endloop
  endfacet
  facet normal -5.623714e-001 0.000000e+000 0.000000e+000
    outer loop
      vertex   -1.854552e+002 3.138163e+002 9.700020e+000
      vertex   -1.854552e+002 2.816104e+002 1.200000e+001
      vertex   -1.854552e+002 3.109045e+002 1.200000e+001
    endloop
  endfacet
  facet normal -7.847246e-001 0.000000e+000 0.000000e+000
    outer loop
      vertex   -1.854552e+002 3.138163e+002 9.700020e+000
      vertex   -1.854552e+002 3.109045e+002 1.200000e+001
      vertex   -1.854552e+002 3.138163e+002 1.200000e+001
    endloop
  endfacet
  facet normal -5.242614e-002 0.000000e+000 0.000000e+000
    outer loop
      vertex   -1.854552e+002 2.992575e+002 0.000000e+000
      vertex   -1.854552e+002 2.668751e+002 0.000000e+000
      vertex   -1.854552e+002 2.668751e+002 1.700020e+000
    endloop
  endfacet
  facet normal -1.000000e+000 0.000000e+000 0.000000e+000
    outer loop
      vertex   -1.854552e+002 2.523163e+002 1.700020e+000
      vertex   -1.854552e+002 2.523163e+002 9.700020e+000
      vertex   -1.854552e+002 2.668751e+002 1.700020e+000
    endloop
  endfacet
  facet normal -8.968118e-001 0.000000e+000 0.000000e+000
    outer loop
      vertex   -1.854552e+002 2.668751e+002 1.700020e+000
      vertex   -1.854552e+002 2.523163e+002 9.700020e+000
      vertex   -1.854552e+002 2.816104e+002 1.200000e+001
    endloop
  endfacet
  facet normal -9.969320e-001 0.000000e+000 0.000000e+000
    outer loop
      vertex   -1.854552e+002 2.523163e+002 9.700020e+000
      vertex   -1.854552e+002 2.523163e+002 1.200000e+001
      vertex   -1.854552e+002 2.816104e+002 1.200000e+001
    endloop
  endfacet
  facet normal -8.764030e-001 0.000000e+000 -0.000000e+000
    outer loop
      vertex   -1.854552e+002 3.138163e+002 9.700020e+000
      vertex   -1.854552e+002 3.138163e+002 1.700020e+000
      vertex   -1.854552e+002 2.992575e+002 1.700020e+000
    endloop
  endfacet
  facet normal 0.000000e+000 0.000000e+000 7.070528e-001
    outer loop
      vertex   -1.809552e+002 2.688163e+002 1.700020e+000
      vertex   -1.809552e+002 2.498163e+002 1.700020e+000
      vertex   -1.807552e+002 2.686163e+002 1.700020e+000
    endloop
  endfacet
  facet normal 0.000000e+000 0.000000e+000 1.063673e-002
    outer loop
      vertex   -1.807552e+002 2.686163e+002 1.700020e+000
      vertex   -1.809552e+002 2.498163e+002 1.700020e+000
      vertex   -1.807552e+002 2.500163e+002 1.700020e+000
    endloop
  endfacet
  facet normal 7.071113e-001 -7.071023e-001 0.000000e+000
    outer loop
      vertex   -1.797552e+002 2.510163e+002 0.000000e+000
      vertex   -1.797552e+002 2.510163e+002 7.000198e-001
      vertex   -1.809552e+002 2.498163e+002 0.000000e+000
    endloop
  endfacet
  facet normal 6.005710e-001 -6.005628e-001 -9.645279e-007
    outer loop
      vertex   -1.809552e+002 2.498163e+002 0.000000e+000
      vertex   -1.797552e+002 2.510163e+002 7.000198e-001
      vertex   -1.807552e+002 2.500163e+002 1.700020e+000
    endloop
  endfacet
  facet normal 1.160401e-001 -1.160401e-001 0.000000e+000
    outer loop
      vertex   -1.809552e+002 2.498163e+002 0.000000e+000
      vertex   -1.807552e+002 2.500163e+002 1.700020e+000
      vertex   -1.809552e+002 2.498163e+002 1.700020e+000
    endloop
  endfacet
  facet normal 1.000000e+000 0.000000e+000 0.000000e+000
    outer loop
      vertex   -1.797552e+002 2.676163e+002 7.000198e-001
      vertex   -1.797552e+002 2.510163e+002 7.000198e-001
      vertex   -1.797552e+002 2.676163e+002 0.000000e+000
    endloop
  endfacet
  facet normal 4.213245e-002 0.000000e+000 0.000000e+000
    outer loop
      vertex   -1.797552e+002 2.676163e+002 0.000000e+000
      vertex   -1.797552e+002 2.510163e+002 7.000198e-001
      vertex   -1.797552e+002 2.510163e+002 0.000000e+000
    endloop
  endfacet
  facet normal 7.071607e-001 7.070528e-001 0.000000e+000
    outer loop
      vertex   -1.809552e+002 2.688163e+002 1.700020e+000
      vertex   -1.807552e+002 2.686163e+002 1.700020e+000
      vertex   -1.809552e+002 2.688163e+002 0.000000e+000
    endloop
  endfacet
  facet normal 6.005679e-001 6.005583e-001 9.646090e-006
    outer loop
      vertex   -1.809552e+002 2.688163e+002 0.000000e+000
      vertex   -1.807552e+002 2.686163e+002 1.700020e+000
      vertex   -1.797552e+002 2.676163e+002 7.000198e-001
    endloop
  endfacet
  facet normal 2.696405e-001 2.696336e-001 0.000000e+000
    outer loop
      vertex   -1.809552e+002 2.688163e+002 0.000000e+000
      vertex   -1.797552e+002 2.676163e+002 7.000198e-001
      vertex   -1.797552e+002 2.676163e+002 0.000000e+000
    endloop
  endfacet
  facet normal 5.773503e-001 0.000000e+000 5.773503e-001
    outer loop
      vertex   -1.797552e+002 2.676163e+002 7.000198e-001
      vertex   -1.807552e+002 2.686163e+002 1.700020e+000
      vertex   -1.797552e+002 2.510163e+002 7.000198e-001
    endloop
  endfacet
  facet normal 6.081914e-001 0.000000e+000 6.081914e-001
    outer loop
      vertex   -1.797552e+002 2.510163e+002 7.000198e-001
      vertex   -1.807552e+002 2.686163e+002 1.700020e+000
      vertex   -1.807552e+002 2.500163e+002 1.700020e+000
    endloop
  endfacet
  facet normal 5.830109e-001 0.000000e+000 5.830109e-001
    outer loop
      vertex   -1.797552e+002 3.126516e+002 7.000198e-001
      vertex   -1.807552e+002 3.136222e+002 1.700020e+000
      vertex   -1.797552e+002 2.965399e+002 7.000198e-001
    endloop
  endfacet
  facet normal 6.140304e-001 0.000000e+000 6.140304e-001
    outer loop
      vertex   -1.797552e+002 2.965399e+002 7.000198e-001
      vertex   -1.807552e+002 3.136222e+002 1.700020e+000
      vertex   -1.807552e+002 2.955692e+002 1.700020e+000
    endloop
  endfacet
  facet normal 1.000000e+000 -0.000000e+000 0.000000e+000
    outer loop
      vertex   -1.797552e+002 2.965399e+002 7.000198e-001
      vertex   -1.797552e+002 2.965399e+002 0.000000e+000
      vertex   -1.797552e+002 3.126516e+002 7.000198e-001
    endloop
  endfacet
  facet normal 9.990575e-001 0.000000e+000 0.000000e+000
    outer loop
      vertex   -1.797552e+002 3.126516e+002 7.000198e-001
      vertex   -1.797552e+002 2.965399e+002 0.000000e+000
      vertex   -1.797552e+002 3.126516e+002 0.000000e+000
    endloop
  endfacet
  facet normal 6.964895e-001 -7.175670e-001 0.000000e+000
    outer loop
      vertex   -1.797552e+002 2.965399e+002 0.000000e+000
      vertex   -1.797552e+002 2.965399e+002 7.000198e-001
      vertex   -1.809552e+002 2.953751e+002 0.000000e+000
    endloop
  endfacet
  facet normal 5.904970e-001 -6.083704e-001 5.690637e-006
    outer loop
      vertex   -1.809552e+002 2.953751e+002 0.000000e+000
      vertex   -1.797552e+002 2.965399e+002 7.000198e-001
      vertex   -1.807552e+002 2.955692e+002 1.700020e+000
    endloop
  endfacet
  facet normal 1.126840e-001 -1.160853e-001 0.000000e+000
    outer loop
      vertex   -1.809552e+002 2.953751e+002 0.000000e+000
      vertex   -1.807552e+002 2.955692e+002 1.700020e+000
      vertex   -1.809552e+002 2.953751e+002 1.700020e+000
    endloop
  endfacet
  facet normal 6.965168e-001 7.175404e-001 0.000000e+000
    outer loop
      vertex   -1.809552e+002 3.138163e+002 1.700020e+000
      vertex   -1.807552e+002 3.136222e+002 1.700020e+000
      vertex   -1.809552e+002 3.138163e+002 0.000000e+000
    endloop
  endfacet
  facet normal 5.904868e-001 6.083770e-001 7.644854e-006
    outer loop
      vertex   -1.809552e+002 3.138163e+002 0.000000e+000
      vertex   -1.807552e+002 3.136222e+002 1.700020e+000
      vertex   -1.797552e+002 3.126516e+002 7.000198e-001
    endloop
  endfacet
  facet normal 2.689373e-001 2.770833e-001 -5.551115e-017
    outer loop
      vertex   -1.809552e+002 3.138163e+002 0.000000e+000
      vertex   -1.797552e+002 3.126516e+002 7.000198e-001
      vertex   -1.797552e+002 3.126516e+002 0.000000e+000
    endloop
  endfacet
  facet normal 0.000000e+000 0.000000e+000 7.175404e-001
    outer loop
      vertex   -1.809552e+002 2.953751e+002 1.700020e+000
      vertex   -1.807552e+002 2.955692e+002 1.700020e+000
      vertex   -1.809552e+002 3.138163e+002 1.700020e+000
    endloop
  endfacet
  facet normal 0.000000e+000 0.000000e+000 7.098643e-001
    outer loop
      vertex   -1.809552e+002 3.138163e+002 1.700020e+000
      vertex   -1.807552e+002 2.955692e+002 1.700020e+000
      vertex   -1.807552e+002 3.136222e+002 1.700020e+000
    endloop
  endfacet
  facet normal 8.242406e-015 0.000000e+000 -1.000000e+000
    outer loop
      vertex   -1.904552e+002 2.620222e+002 0.000000e+000
      vertex   -1.904552e+002 2.571693e+002 0.000000e+000
      vertex   -1.990758e+002 2.620222e+002 -7.105427e-014
    endloop
  endfacet
  facet normal -1.972152e-031 -9.644611e-015 -6.587173e-001
    outer loop
      vertex   -1.990758e+002 2.620222e+002 -7.105427e-014
      vertex   -1.904552e+002 2.571693e+002 0.000000e+000
      vertex   -2.222552e+002 2.571693e+002 0.000000e+000
    endloop
  endfacet
  facet normal -0.000000e+000 -3.000350e-015 -2.049209e-001
    outer loop
      vertex   -1.990758e+002 2.620222e+002 -7.105427e-014
      vertex   -2.222552e+002 2.571693e+002 0.000000e+000
      vertex   -2.136346e+002 2.620222e+002 -7.105427e-014
    endloop
  endfacet
  facet normal -4.043363e-015 1.577722e-030 -4.905571e-001
    outer loop
      vertex   -2.136346e+002 2.620222e+002 -7.105427e-014
      vertex   -2.222552e+002 2.571693e+002 0.000000e+000
      vertex   -2.222552e+002 2.620222e+002 0.000000e+000
    endloop
  endfacet
  facet normal -0.000000e+000 -0.000000e+000 -8.861936e-001
    outer loop
      vertex   -2.222552e+002 2.620222e+002 0.000000e+000
      vertex   -2.222552e+002 2.571693e+002 0.000000e+000
      vertex   -2.329552e+002 2.676163e+002 0.000000e+000
    endloop
  endfacet
  facet normal 0.000000e+000 0.000000e+000 -2.847455e-001
    outer loop
      vertex   -2.222552e+002 2.620222e+002 0.000000e+000
      vertex   -2.329552e+002 2.676163e+002 0.000000e+000
      vertex   -2.272552e+002 2.668751e+002 0.000000e+000
    endloop
  endfacet
  facet normal 0.000000e+000 0.000000e+000 -2.743887e-001
    outer loop
      vertex   -2.272552e+002 2.668751e+002 0.000000e+000
      vertex   -2.329552e+002 2.676163e+002 0.000000e+000
      vertex   -2.317552e+002 2.688163e+002 0.000000e+000
    endloop
  endfacet
  facet normal 0.000000e+000 0.000000e+000 -8.451976e-001
    outer loop
      vertex   -2.272552e+002 2.668751e+002 0.000000e+000
      vertex   -2.317552e+002 2.688163e+002 0.000000e+000
      vertex   -2.317552e+002 2.953751e+002 0.000000e+000
    endloop
  endfacet
  facet normal 0.000000e+000 0.000000e+000 -7.155135e-001
    outer loop
      vertex   -1.904552e+002 2.571693e+002 0.000000e+000
      vertex   -1.904552e+002 2.620222e+002 0.000000e+000
      vertex   -1.797552e+002 2.676163e+002 0.000000e+000
    endloop
  endfacet
  facet normal 0.000000e+000 0.000000e+000 -3.451759e-001
    outer loop
      vertex   -1.797552e+002 2.676163e+002 0.000000e+000
      vertex   -1.904552e+002 2.620222e+002 0.000000e+000
      vertex   -1.854552e+002 2.668751e+002 0.000000e+000
    endloop
  endfacet
  facet normal -0.000000e+000 0.000000e+000 -7.923900e-001
    outer loop
      vertex   -1.797552e+002 2.676163e+002 0.000000e+000
      vertex   -1.854552e+002 2.668751e+002 0.000000e+000
      vertex   -1.809552e+002 2.688163e+002 0.000000e+000
    endloop
  endfacet
  facet normal -0.000000e+000 0.000000e+000 -9.182105e-001
    outer loop
      vertex   -1.809552e+002 2.688163e+002 0.000000e+000
      vertex   -1.854552e+002 2.668751e+002 0.000000e+000
      vertex   -1.809552e+002 2.953751e+002 0.000000e+000
    endloop
  endfacet
  facet normal -0.000000e+000 0.000000e+000 -8.497723e-001
    outer loop
      vertex   -1.809552e+002 2.953751e+002 0.000000e+000
      vertex   -1.854552e+002 2.668751e+002 0.000000e+000
      vertex   -1.854552e+002 2.992575e+002 0.000000e+000
    endloop
  endfacet
  facet normal 0.000000e+000 0.000000e+000 -9.960902e-001
    outer loop
      vertex   -1.809552e+002 2.953751e+002 0.000000e+000
      vertex   -1.854552e+002 2.992575e+002 0.000000e+000
      vertex   -1.797552e+002 2.965399e+002 0.000000e+000
    endloop
  endfacet
  facet normal 0.000000e+000 0.000000e+000 -9.026553e-001
    outer loop
      vertex   -1.797552e+002 2.965399e+002 0.000000e+000
      vertex   -1.854552e+002 2.992575e+002 0.000000e+000
      vertex   -1.797552e+002 3.126516e+002 0.000000e+000
    endloop
  endfacet
  facet normal 0.000000e+000 0.000000e+000 -4.748410e-001
    outer loop
      vertex   -1.797552e+002 3.126516e+002 0.000000e+000
      vertex   -1.854552e+002 2.992575e+002 0.000000e+000
      vertex   -1.904552e+002 3.041104e+002 0.000000e+000
    endloop
  endfacet
  facet normal 0.000000e+000 0.000000e+000 -3.351133e-001
    outer loop
      vertex   -1.797552e+002 3.126516e+002 0.000000e+000
      vertex   -1.904552e+002 3.041104e+002 0.000000e+000
      vertex   -1.904552e+002 3.089633e+002 0.000000e+000
    endloop
  endfacet
  facet normal 7.182503e-015 0.000000e+000 -8.714086e-001
    outer loop
      vertex   -1.904552e+002 3.089633e+002 0.000000e+000
      vertex   -1.904552e+002 3.041104e+002 0.000000e+000
      vertex   -1.990758e+002 3.041104e+002 -7.105427e-014
    endloop
  endfacet
  facet normal 1.972152e-031 4.415547e-015 -3.015775e-001
    outer loop
      vertex   -1.904552e+002 3.089633e+002 0.000000e+000
      vertex   -1.990758e+002 3.041104e+002 -7.105427e-014
      vertex   -2.136346e+002 3.041104e+002 -7.105427e-014
    endloop
  endfacet
  facet normal 0.000000e+000 0.000000e+000 -7.175800e-001
    outer loop
      vertex   -2.136346e+002 3.041104e+002 -7.105427e-014
      vertex   -1.990758e+002 3.041104e+002 -7.105427e-014
      vertex   -2.087817e+002 2.991104e+002 -7.105427e-014
    endloop
  endfacet
  facet normal 0.000000e+000 0.000000e+000 -4.579564e-001
    outer loop
      vertex   -2.087817e+002 2.991104e+002 -7.105427e-014
      vertex   -1.990758e+002 3.041104e+002 -7.105427e-014
      vertex   -2.039287e+002 2.991104e+002 -7.105427e-014
    endloop
  endfacet
  facet normal 0.000000e+000 0.000000e+000 -9.887562e-001
    outer loop
      vertex   -2.087817e+002 2.991104e+002 -7.105427e-014
      vertex   -2.039287e+002 2.991104e+002 -7.105427e-014
      vertex   -2.039287e+002 2.670222e+002 -7.105427e-014
    endloop
  endfacet
  facet normal 0.000000e+000 0.000000e+000 -7.175800e-001
    outer loop
      vertex   -1.990758e+002 2.620222e+002 -7.105427e-014
      vertex   -2.136346e+002 2.620222e+002 -7.105427e-014
      vertex   -2.039287e+002 2.670222e+002 -7.105427e-014
    endloop
  endfacet
  facet normal -0.000000e+000 0.000000e+000 -4.579564e-001
    outer loop
      vertex   -2.039287e+002 2.670222e+002 -7.105427e-014
      vertex   -2.136346e+002 2.620222e+002 -7.105427e-014
      vertex   -2.087817e+002 2.670222e+002 -7.105427e-014
    endloop
  endfacet
  facet normal 0.000000e+000 0.000000e+000 -9.887562e-001
    outer loop
      vertex   -2.039287e+002 2.670222e+002 -7.105427e-014
      vertex   -2.087817e+002 2.670222e+002 -7.105427e-014
      vertex   -2.087817e+002 2.991104e+002 -7.105427e-014
    endloop
  endfacet
  facet normal -0.000000e+000 -0.000000e+000 -6.964801e-001
    outer loop
      vertex   -1.809552e+002 3.138163e+002 0.000000e+000
      vertex   -1.797552e+002 3.126516e+002 0.000000e+000
      vertex   -1.854552e+002 3.138163e+002 0.000000e+000
    endloop
  endfacet
  facet normal 0.000000e+000 -0.000000e+000 -8.260349e-001
    outer loop
      vertex   -1.854552e+002 3.138163e+002 0.000000e+000
      vertex   -1.797552e+002 3.126516e+002 0.000000e+000
      vertex   -1.904552e+002 3.089633e+002 0.000000e+000
    endloop
  endfacet
  facet normal 0.000000e+000 0.000000e+000 -9.996386e-001
    outer loop
      vertex   -1.904552e+002 2.571693e+002 0.000000e+000
      vertex   -1.797552e+002 2.676163e+002 0.000000e+000
      vertex   -1.854552e+002 2.523163e+002 0.000000e+000
    endloop
  endfacet
  facet normal 0.000000e+000 0.000000e+000 -9.912499e-001
    outer loop
      vertex   -1.854552e+002 2.523163e+002 0.000000e+000
      vertex   -1.797552e+002 2.676163e+002 0.000000e+000
      vertex   -1.797552e+002 2.510163e+002 0.000000e+000
    endloop
  endfacet
  facet normal 0.000000e+000 0.000000e+000 -2.791048e-001
    outer loop
      vertex   -1.854552e+002 2.523163e+002 0.000000e+000
      vertex   -1.797552e+002 2.510163e+002 0.000000e+000
      vertex   -1.809552e+002 2.498163e+002 0.000000e+000
    endloop
  endfacet
  facet normal 0.000000e+000 0.000000e+000 -4.856417e-001
    outer loop
      vertex   -1.809552e+002 2.498163e+002 0.000000e+000
      vertex   -2.317552e+002 2.498163e+002 0.000000e+000
      vertex   -1.854552e+002 2.523163e+002 0.000000e+000
    endloop
  endfacet
  facet normal -0.000000e+000 0.000000e+000 -5.391715e-002
    outer loop
      vertex   -1.854552e+002 2.523163e+002 0.000000e+000
      vertex   -2.317552e+002 2.498163e+002 0.000000e+000
      vertex   -2.272552e+002 2.523163e+002 0.000000e+000
    endloop
  endfacet
  facet normal 0.000000e+000 0.000000e+000 -2.791075e-001
    outer loop
      vertex   -2.272552e+002 2.523163e+002 0.000000e+000
      vertex   -2.317552e+002 2.498163e+002 0.000000e+000
      vertex   -2.329552e+002 2.510163e+002 0.000000e+000
    endloop
  endfacet
  facet normal -0.000000e+000 0.000000e+000 -9.912499e-001
    outer loop
      vertex   -2.272552e+002 2.523163e+002 0.000000e+000
      vertex   -2.329552e+002 2.510163e+002 0.000000e+000
      vertex   -2.329552e+002 2.676163e+002 0.000000e+000
    endloop
  endfacet
  facet normal 0.000000e+000 0.000000e+000 -1.559621e-001
    outer loop
      vertex   -2.272552e+002 2.668751e+002 0.000000e+000
      vertex   -2.317552e+002 2.953751e+002 0.000000e+000
      vertex   -2.272552e+002 2.992575e+002 0.000000e+000
    endloop
  endfacet
  facet normal 0.000000e+000 0.000000e+000 -2.637931e-001
    outer loop
      vertex   -2.272552e+002 2.992575e+002 0.000000e+000
      vertex   -2.317552e+002 2.953751e+002 0.000000e+000
      vertex   -2.329552e+002 2.965399e+002 0.000000e+000
    endloop
  endfacet
  facet normal -0.000000e+000 0.000000e+000 -9.990948e-001
    outer loop
      vertex   -2.272552e+002 2.992575e+002 0.000000e+000
      vertex   -2.329552e+002 2.965399e+002 0.000000e+000
      vertex   -2.329552e+002 3.126516e+002 0.000000e+000
    endloop
  endfacet
  facet normal 0.000000e+000 -0.000000e+000 -6.964710e-001
    outer loop
      vertex   -2.317552e+002 3.138163e+002 0.000000e+000
      vertex   -2.272552e+002 3.138163e+002 0.000000e+000
      vertex   -2.329552e+002 3.126516e+002 0.000000e+000
    endloop
  endfacet
  facet normal 0.000000e+000 0.000000e+000 -5.085524e-001
    outer loop
      vertex   -2.329552e+002 3.126516e+002 0.000000e+000
      vertex   -2.272552e+002 3.138163e+002 0.000000e+000
      vertex   -2.222552e+002 3.089633e+002 0.000000e+000
    endloop
  endfacet
  facet normal 0.000000e+000 0.000000e+000 -3.351133e-001
    outer loop
      vertex   -2.329552e+002 3.126516e+002 0.000000e+000
      vertex   -2.222552e+002 3.089633e+002 0.000000e+000
      vertex   -2.222552e+002 3.041104e+002 0.000000e+000
    endloop
  endfacet
  facet normal -8.242391e-015 0.000000e+000 -1.000000e+000
    outer loop
      vertex   -2.222552e+002 3.041104e+002 0.000000e+000
      vertex   -2.222552e+002 3.089633e+002 0.000000e+000
      vertex   -2.136346e+002 3.041104e+002 -7.105427e-014
    endloop
  endfacet
  facet normal 0.000000e+000 9.644604e-015 -6.587168e-001
    outer loop
      vertex   -2.136346e+002 3.041104e+002 -7.105427e-014
      vertex   -2.222552e+002 3.089633e+002 0.000000e+000
      vertex   -1.904552e+002 3.089633e+002 0.000000e+000
    endloop
  endfacet
  facet normal -0.000000e+000 0.000000e+000 -9.919901e-001
    outer loop
      vertex   -2.222552e+002 3.041104e+002 0.000000e+000
      vertex   -2.272552e+002 2.992575e+002 0.000000e+000
      vertex   -2.329552e+002 3.126516e+002 0.000000e+000
    endloop
  endfacet
  facet normal -0.000000e+000 0.000000e+000 -9.996386e-001
    outer loop
      vertex   -2.222552e+002 2.571693e+002 0.000000e+000
      vertex   -2.272552e+002 2.523163e+002 0.000000e+000
      vertex   -2.329552e+002 2.676163e+002 0.000000e+000
    endloop
  endfacet
  facet normal 6.964750e-001 7.175811e-001 -0.000000e+000
    outer loop
      vertex   -2.272552e+002 2.668751e+002 0.000000e+000
      vertex   -2.272552e+002 2.668751e+002 1.700020e+000
      vertex   -2.222552e+002 2.620222e+002 0.000000e+000
    endloop
  endfacet
  facet normal 6.766275e-001 6.971321e-001 -0.000000e+000
    outer loop
      vertex   -2.222552e+002 2.620222e+002 0.000000e+000
      vertex   -2.272552e+002 2.668751e+002 1.700020e+000
      vertex   -2.222552e+002 2.620222e+002 1.700020e+000
    endloop
  endfacet
  facet normal 0.000000e+000 -0.000000e+000 7.175811e-001
    outer loop
      vertex   -1.854552e+002 2.523163e+002 1.700020e+000
      vertex   -1.854552e+002 2.668751e+002 1.700020e+000
      vertex   -1.904552e+002 2.571693e+002 1.700020e+000
    endloop
  endfacet
  facet normal 0.000000e+000 0.000000e+000 4.579570e-001
    outer loop
      vertex   -1.904552e+002 2.571693e+002 1.700020e+000
      vertex   -1.854552e+002 2.668751e+002 1.700020e+000
      vertex   -1.904552e+002 2.620222e+002 1.700020e+000
    endloop
  endfacet
  facet normal 0.000000e+000 -0.000000e+000 8.714086e-001
    outer loop
      vertex   -1.904552e+002 2.571693e+002 1.700020e+000
      vertex   -1.904552e+002 2.620222e+002 1.700020e+000
      vertex   -1.990758e+002 2.620222e+002 1.700020e+000
    endloop
  endfacet
  facet normal 0.000000e+000 0.000000e+000 7.175800e-001
    outer loop
      vertex   -2.039287e+002 2.670222e+002 1.700020e+000
      vertex   -2.087817e+002 2.670222e+002 1.700020e+000
      vertex   -1.990758e+002 2.620222e+002 1.700020e+000
    endloop
  endfacet
  facet normal 0.000000e+000 0.000000e+000 4.579564e-001
    outer loop
      vertex   -1.990758e+002 2.620222e+002 1.700020e+000
      vertex   -2.087817e+002 2.670222e+002 1.700020e+000
      vertex   -2.136346e+002 2.620222e+002 1.700020e+000
    endloop
  endfacet
  facet normal 0.000000e+000 0.000000e+000 4.905578e-001
    outer loop
      vertex   -1.990758e+002 2.620222e+002 1.700020e+000
      vertex   -2.136346e+002 2.620222e+002 1.700020e+000
      vertex   -1.904552e+002 2.571693e+002 1.700020e+000
    endloop
  endfacet
  facet normal 0.000000e+000 0.000000e+000 2.049210e-001
    outer loop
      vertex   -1.904552e+002 2.571693e+002 1.700020e+000
      vertex   -2.136346e+002 2.620222e+002 1.700020e+000
      vertex   -2.222552e+002 2.571693e+002 1.700020e+000
    endloop
  endfacet
  facet normal 0.000000e+000 0.000000e+000 8.714090e-001
    outer loop
      vertex   -2.222552e+002 2.571693e+002 1.700020e+000
      vertex   -2.136346e+002 2.620222e+002 1.700020e+000
      vertex   -2.222552e+002 2.620222e+002 1.700020e+000
    endloop
  endfacet
  facet normal 0.000000e+000 -0.000000e+000 4.579570e-001
    outer loop
      vertex   -2.222552e+002 2.571693e+002 1.700020e+000
      vertex   -2.222552e+002 2.620222e+002 1.700020e+000
      vertex   -2.272552e+002 2.668751e+002 1.700020e+000
    endloop
  endfacet
  facet normal 0.000000e+000 0.000000e+000 1.000000e+000
    outer loop
      vertex   -2.087817e+002 2.670222e+002 1.700020e+000
      vertex   -2.039287e+002 2.670222e+002 1.700020e+000
      vertex   -2.087817e+002 2.991104e+002 1.700020e+000
    endloop
  endfacet
  facet normal -0.000000e+000 0.000000e+000 9.887562e-001
    outer loop
      vertex   -2.087817e+002 2.991104e+002 1.700020e+000
      vertex   -2.039287e+002 2.670222e+002 1.700020e+000
      vertex   -2.039287e+002 2.991104e+002 1.700020e+000
    endloop
  endfacet
  facet normal 0.000000e+000 -0.000000e+000 7.175800e-001
    outer loop
      vertex   -2.087817e+002 2.991104e+002 1.700020e+000
      vertex   -2.039287e+002 2.991104e+002 1.700020e+000
      vertex   -2.136346e+002 3.041104e+002 1.700020e+000
    endloop
  endfacet
  facet normal -0.000000e+000 0.000000e+000 4.579564e-001
    outer loop
      vertex   -2.136346e+002 3.041104e+002 1.700020e+000
      vertex   -2.039287e+002 2.991104e+002 1.700020e+000
      vertex   -1.990758e+002 3.041104e+002 1.700020e+000
    endloop
  endfacet
  facet normal 0.000000e+000 -0.000000e+000 4.905571e-001
    outer loop
      vertex   -2.136346e+002 3.041104e+002 1.700020e+000
      vertex   -1.990758e+002 3.041104e+002 1.700020e+000
      vertex   -2.222552e+002 3.089633e+002 1.700020e+000
    endloop
  endfacet
  facet normal -0.000000e+000 0.000000e+000 2.049209e-001
    outer loop
      vertex   -2.222552e+002 3.089633e+002 1.700020e+000
      vertex   -1.990758e+002 3.041104e+002 1.700020e+000
      vertex   -1.904552e+002 3.089633e+002 1.700020e+000
    endloop
  endfacet
  facet normal 0.000000e+000 0.000000e+000 8.714086e-001
    outer loop
      vertex   -1.904552e+002 3.089633e+002 1.700020e+000
      vertex   -1.990758e+002 3.041104e+002 1.700020e+000
      vertex   -1.904552e+002 3.041104e+002 1.700020e+000
    endloop
  endfacet
  facet normal -0.000000e+000 0.000000e+000 7.175789e-001
    outer loop
      vertex   -1.904552e+002 3.089633e+002 1.700020e+000
      vertex   -1.904552e+002 3.041104e+002 1.700020e+000
      vertex   -1.854552e+002 3.138163e+002 1.700020e+000
    endloop
  endfacet
  facet normal 0.000000e+000 0.000000e+000 4.579559e-001
    outer loop
      vertex   -1.854552e+002 3.138163e+002 1.700020e+000
      vertex   -1.904552e+002 3.041104e+002 1.700020e+000
      vertex   -1.854552e+002 2.992575e+002 1.700020e+000
    endloop
  endfacet
  facet normal 0.000000e+000 0.000000e+000 4.905571e-001
    outer loop
      vertex   -2.136346e+002 3.041104e+002 1.700020e+000
      vertex   -2.222552e+002 3.089633e+002 1.700020e+000
      vertex   -2.222552e+002 3.041104e+002 1.700020e+000
    endloop
  endfacet
  facet normal 0.000000e+000 -0.000000e+000 4.579559e-001
    outer loop
      vertex   -2.222552e+002 3.041104e+002 1.700020e+000
      vertex   -2.222552e+002 3.089633e+002 1.700020e+000
      vertex   -2.272552e+002 3.138163e+002 1.700020e+000
    endloop
  endfacet
  facet normal 0.000000e+000 0.000000e+000 9.568664e-001
    outer loop
      vertex   -2.222552e+002 3.041104e+002 1.700020e+000
      vertex   -2.272552e+002 3.138163e+002 1.700020e+000
      vertex   -2.272552e+002 2.992575e+002 1.700020e+000
    endloop
  endfacet
  facet normal 0.000000e+000 0.000000e+000 4.579570e-001
    outer loop
      vertex   -2.272552e+002 2.668751e+002 1.700020e+000
      vertex   -2.272552e+002 2.523163e+002 1.700020e+000
      vertex   -2.222552e+002 2.571693e+002 1.700020e+000
    endloop
  endfacet
  facet normal 6.964750e-001 -7.175811e-001 0.000000e+000
    outer loop
      vertex   -2.222552e+002 2.571693e+002 0.000000e+000
      vertex   -2.222552e+002 2.571693e+002 1.700020e+000
      vertex   -2.272552e+002 2.523163e+002 0.000000e+000
    endloop
  endfacet
  facet normal 6.766275e-001 -6.971321e-001 0.000000e+000
    outer loop
      vertex   -2.272552e+002 2.523163e+002 0.000000e+000
      vertex   -2.222552e+002 2.571693e+002 1.700020e+000
      vertex   -2.272552e+002 2.523163e+002 1.700020e+000
    endloop
  endfacet
  facet normal -6.964750e-001 7.175811e-001 0.000000e+000
    outer loop
      vertex   -1.904552e+002 2.620222e+002 0.000000e+000
      vertex   -1.904552e+002 2.620222e+002 1.700020e+000
      vertex   -1.854552e+002 2.668751e+002 0.000000e+000
    endloop
  endfacet
  facet normal -6.766275e-001 6.971321e-001 0.000000e+000
    outer loop
      vertex   -1.854552e+002 2.668751e+002 0.000000e+000
      vertex   -1.904552e+002 2.620222e+002 1.700020e+000
      vertex   -1.854552e+002 2.668751e+002 1.700020e+000
    endloop
  endfacet
  facet normal 0.000000e+000 1.000000e+000 0.000000e+000
    outer loop
      vertex   -2.136346e+002 2.620222e+002 1.700020e+000
      vertex   -2.136346e+002 2.620222e+002 -7.105427e-014
      vertex   -2.222552e+002 2.620222e+002 1.700020e+000
    endloop
  endfacet
  facet normal 0.000000e+000 9.811046e-001 0.000000e+000
    outer loop
      vertex   -2.222552e+002 2.620222e+002 1.700020e+000
      vertex   -2.136346e+002 2.620222e+002 -7.105427e-014
      vertex   -2.222552e+002 2.620222e+002 0.000000e+000
    endloop
  endfacet
  facet normal 0.000000e+000 -1.000000e+000 0.000000e+000
    outer loop
      vertex   -2.222552e+002 2.571693e+002 1.700020e+000
      vertex   -2.222552e+002 2.571693e+002 0.000000e+000
      vertex   -1.904552e+002 2.571693e+002 1.700020e+000
    endloop
  endfacet
  facet normal 0.000000e+000 -9.985741e-001 -0.000000e+000
    outer loop
      vertex   -1.904552e+002 2.571693e+002 1.700020e+000
      vertex   -2.222552e+002 2.571693e+002 0.000000e+000
      vertex   -1.904552e+002 2.571693e+002 0.000000e+000
    endloop
  endfacet
  facet normal -6.964750e-001 -7.175811e-001 0.000000e+000
    outer loop
      vertex   -1.854552e+002 2.523163e+002 0.000000e+000
      vertex   -1.854552e+002 2.523163e+002 1.700020e+000
      vertex   -1.904552e+002 2.571693e+002 0.000000e+000
    endloop
  endfacet
  facet normal -6.766275e-001 -6.971321e-001 0.000000e+000
    outer loop
      vertex   -1.904552e+002 2.571693e+002 0.000000e+000
      vertex   -1.854552e+002 2.523163e+002 1.700020e+000
      vertex   -1.904552e+002 2.571693e+002 1.700020e+000
    endloop
  endfacet
endsolid
